<svg xmlns="http://www.w3.org/2000/svg" viewBox="0 0 510 100"><defs><style>.cls-1{fill:#5072aa;}.cls-2{fill:#fff;}</style></defs><title>btn_facebook_login</title><g id="レイヤー_2" data-name="レイヤー 2"><g id="layout"><rect class="cls-1" width="510" height="100" rx="10"/><ellipse class="cls-1" cx="450.527" cy="50" rx="25.743" ry="25.905"/><path class="cls-2" d="M476.27,50A25.744,25.744,0,1,0,446.5,75.59v-18.1h-6.536V50H446.5V44.293c0-6.492,3.844-10.079,9.724-10.079a39.342,39.342,0,0,1,5.762.506V41.1h-3.246c-3.2,0-4.2,2-4.2,4.046V50h7.14l-1.142,7.488h-6v18.1A25.862,25.862,0,0,0,476.27,50Z"/><path class="cls-2" d="M43.681,44.731V42.949c0-2.355,1.189-3.389,3.433-3.389h1.32v1.694H47.268c-1.32,0-1.585.682-1.585,1.672v1.8h2.751v1.606H45.683V57.382h-2V46.337H41.546V44.731Z"/><path class="cls-2" d="M52.534,48.383c.088-2.86,2.574-4.114,5.28-4.114,1.761,0,5.171.638,5.171,4.18v6.8a2.91,2.91,0,0,0,.55,1.848v.286H61.378A3.232,3.232,0,0,1,61,55.821a6.271,6.271,0,0,1-4.642,2.045c-2,0-4.555-.99-4.555-3.894,0-3.015,2.6-3.41,6.821-4.093,1.562-.242,2.4-.374,2.4-1.628,0-.506-.309-2.31-3.213-2.31-1.826,0-3.191.7-3.3,2.442ZM61,50.825a5.907,5.907,0,0,1-2.53.638c-3.7.551-4.577,1.013-4.577,2.465,0,.924.639,2.244,2.772,2.244,2.576,0,4.335-1.87,4.335-3.015Z"/><path class="cls-2" d="M79.394,52.718c-.221,3.872-3.125,5.148-5.765,5.148-4.51,0-6.051-3.542-6.051-6.71,0-3.191,1.43-6.887,6.139-6.887,3.3,0,5.324,1.87,5.567,5.06H77.171a3.227,3.227,0,0,0-3.564-3.388c-3.213,0-3.939,2.662-3.939,5.039,0,3.1,1.1,5.192,4.027,5.192a3.192,3.192,0,0,0,3.52-3.454Z"/><path class="cls-2" d="M95.159,53.466c-.308,1.254-1.078,4.4-5.611,4.4-5.478,0-6.029-4.972-6.029-6.821,0-3.74,1.871-6.776,5.854-6.776,3.938,0,5.94,3.036,5.962,7.261H85.587c.133,2.75,1.145,4.642,3.939,4.642a3.221,3.221,0,0,0,3.52-2.706Zm-1.914-3.52c-.374-2.509-1.584-4-3.829-4-2.222,0-3.455,1.5-3.785,4Z"/><path class="cls-2" d="M102.039,40.044v6.381a4.325,4.325,0,0,1,3.894-2.156c2.574,0,5.281,1.958,5.281,6.82,0,4.379-2.31,6.777-5.237,6.777a4.364,4.364,0,0,1-3.938-2.178L102,57.382h-1.958V40.044Zm0,11.024c0,4.488,2.42,5.1,3.542,5.1.814,0,3.542-.33,3.542-5.1,0-4.555-2.463-5.127-3.542-5.127C104.723,45.941,102.039,46.315,102.039,51.068Z"/><path class="cls-2" d="M127.2,51.068c0,5.1-3.169,6.8-5.9,6.8-3.212,0-5.919-2.178-5.919-6.689,0-5.984,3.961-6.908,5.919-6.908C124.008,44.269,127.2,45.918,127.2,51.068Zm-9.726,0c0,2.112.99,5.1,3.828,5.1s3.807-3.036,3.807-5.1c0-2.091-.968-5.127-3.807-5.127S117.473,48.955,117.473,51.068Z"/><path class="cls-2" d="M143.183,51.068c0,5.1-3.169,6.8-5.9,6.8-3.212,0-5.919-2.178-5.919-6.689,0-5.984,3.961-6.908,5.919-6.908C139.993,44.269,143.183,45.918,143.183,51.068Zm-9.726,0c0,2.112.991,5.1,3.829,5.1s3.806-3.036,3.806-5.1c0-2.091-.968-5.127-3.806-5.127S133.457,48.955,133.457,51.068Z"/><path class="cls-2" d="M149.923,40.044V50.715l6.095-5.984h2.751l-4.73,4.62,5.324,8.031h-2.508L152.63,50.65l-2.707,2.42v4.312h-2V40.044Z"/><path class="cls-2" d="M175.9,44.092c-1.166.792-4.665,3.433-4.665,7.107,0,2.817,2.135,5.083,6.821,5.567a11.009,11.009,0,0,0-.836,2.068c-4.026-.813-7.921-3.013-7.921-7.613,0-2.882,1.694-5.962,6.007-8.537-.551.022-10.1,1.057-11.882,1.5l-.308-2.376c.418.022.7.044,1.122.044a125.867,125.867,0,0,0,17.339-1.937l.44,2.179A10.017,10.017,0,0,0,175.9,44.092Zm3.345,5.325a18.006,18.006,0,0,0-1.981-2.465l1.056-.813a18.754,18.754,0,0,1,2,2.4A4.744,4.744,0,0,0,179.241,49.417Zm2.177-1.606a13.785,13.785,0,0,0-1.98-2.508l1.057-.748a17.586,17.586,0,0,1,2.045,2.4A3.87,3.87,0,0,0,181.418,47.811Z"/><path class="cls-2" d="M189.882,55.8v1.166H187.9V41.98h15.446V56.964h-1.98V55.8Zm11.486-1.782V43.762H189.882V54.016Z"/><path class="cls-2" d="M225.915,44.731c-2.09,4.928-4.731,11.2-12.8,14.433a7.434,7.434,0,0,0-1.453-1.429c3.829-1.54,9.219-4.335,12.08-13.29h-7.305a30.178,30.178,0,0,1-5.611,6.314,14.735,14.735,0,0,0-1.474-1.364,23.5,23.5,0,0,0,7.635-10.209l1.849.792c.2.088.307.154.307.307,0,.265-.33.287-.528.309-.55,1.1-.814,1.563-1.122,2.09h6.579a3.284,3.284,0,0,0,1.452-.33l1.1,1.034A9.157,9.157,0,0,0,225.915,44.731Zm-2.09-3.169a13.18,13.18,0,0,0-1.937-2.156l1.1-.859a19.008,19.008,0,0,1,1.98,2.2A5.722,5.722,0,0,0,223.825,41.562Zm3.322-.132a13.342,13.342,0,0,0-1.914-2.244l1.057-.859a22.743,22.743,0,0,1,2,2.267A4.71,4.71,0,0,0,227.147,41.43Z"/><path class="cls-2" d="M247.748,40.792a1.915,1.915,0,0,1-.439-.044,36.117,36.117,0,0,1-5.611,5.17V58.592h-2V47.305a40.957,40.957,0,0,1-7.965,3.872,9.113,9.113,0,0,0-1.431-1.672A30.238,30.238,0,0,0,246.1,38.9l1.827,1.32a.35.35,0,0,1,.176.308C248.1,40.7,247.947,40.792,247.748,40.792Z"/><path class="cls-2" d="M260.21,45.83a24.958,24.958,0,0,0-6.249-4.2L255.105,40a29.552,29.552,0,0,1,6.293,4.158A12.3,12.3,0,0,0,260.21,45.83Zm-4.291,11.882c-.022.374-.066.506-.307.506-.155,0-.286-.153-.353-.264l-1.188-1.98A26.068,26.068,0,0,0,270.881,43.9a12.448,12.448,0,0,0,1.21,1.716C267.163,53.575,259.506,56.436,255.919,57.712Z"/><path class="cls-2" d="M291.729,43.674c-1.3,0-2.574.023-3.873.067,0,1.518-.044,2.837.022,3.718a7.77,7.77,0,0,1,.859,3.586,9.424,9.424,0,0,1-1.981,5.589,10.609,10.609,0,0,1-3.652,2.8c-.353-.353-1.189-1.013-1.65-1.364,2.507-.991,4.29-2.244,5.082-4.929a3.388,3.388,0,0,1-2.6,1.231c-1.937,0-3.081-1.671-3.081-4.07,0-2.508,1.474-4.224,3.5-4.224a3.013,3.013,0,0,1,1.628.44c-.022-.418-.044-2.047-.044-2.685-2.508.111-6.975.485-9.417.88l-.177-2.068c1.519.022,8.186-.4,9.55-.462a25.022,25.022,0,0,0-.308-3.19l2.178.219c.309.023.528.044.528.286,0,.155-.263.265-.4.331a20.427,20.427,0,0,0-.088,2.266c6.425-.286,7.151-.308,7.724-.351a15.545,15.545,0,0,0,.044,2C294.788,43.7,293.467,43.674,291.729,43.674Zm-7.283,3.961c-1.452,0-1.958,1.474-1.958,2.706,0,.506,0,2.486,1.8,2.486,1.277,0,2.223-1.21,2.223-2.816A2.184,2.184,0,0,0,284.446,47.635Z"/><path class="cls-2" d="M308.885,58.483c-2.553,0-4.862-1.145-4.862-3.433,0-1.584,1.254-2.948,3.433-2.948a4.718,4.718,0,0,1,3.784,1.8,4.461,4.461,0,0,1,.814,2.156,4.257,4.257,0,0,0,2.926-3.96c0-2.443-1.826-4.071-4.731-4.071-3.828,0-6.138,2.157-9.659,5.831l-1.518-1.474a129.726,129.726,0,0,0,10.914-10.452,63.155,63.155,0,0,1-8.274.969l-.33-1.959c2.267.11,8.3-.242,11.243-1.254l1.035,1.3c-.506.418-6.183,5.655-6.667,6.183a9.464,9.464,0,0,1,3.718-.77c3.235,0,6.162,1.936,6.162,5.522C316.873,56.546,312.186,58.483,308.885,58.483Zm.7-3.785a3.136,3.136,0,0,0-2.266-1.012,1.4,1.4,0,0,0-1.584,1.364c0,1.519,1.914,1.914,2.9,1.914a8.651,8.651,0,0,0,1.738-.22A3.136,3.136,0,0,0,309.589,54.7Z"/></g></g></svg>