<svg xmlns="http://www.w3.org/2000/svg" viewBox="0 0 510 100"><defs><style>.cls-1{fill:#00a2e0;}.cls-2{fill:#fff;}</style></defs><title>btn_twitter_login</title><g id="レイヤー_2" data-name="レイヤー 2"><g id="layout"><rect class="cls-1" width="510" height="100" rx="10"/><path class="cls-2" d="M440.909,71.024c19.565,0,30.264-16.176,30.264-30.2,0-.459-.009-.916-.03-1.372a21.605,21.605,0,0,0,5.306-5.5,21.271,21.271,0,0,1-6.108,1.67,10.65,10.65,0,0,0,4.677-5.872,21.305,21.305,0,0,1-6.754,2.577,10.64,10.64,0,0,0-18.127,9.68,30.215,30.215,0,0,1-21.924-11.09,10.608,10.608,0,0,0,3.293,14.171,10.565,10.565,0,0,1-4.818-1.328c0,.044,0,.089,0,.136a10.625,10.625,0,0,0,8.533,10.406,10.655,10.655,0,0,1-4.8.182,10.645,10.645,0,0,0,9.937,7.372A21.377,21.377,0,0,1,427.142,66.4a21.717,21.717,0,0,1-2.538-.147,30.164,30.164,0,0,0,16.305,4.768"/><path class="cls-2" d="M45.662,41.21v3.521h2.75v1.606h-2.75v8.4c0,1.277.99,1.365,2.089,1.365h.661v1.717c-.243.021-.506.043-1.012.043-1.3,0-3.741,0-3.741-3.08V46.337h-2.09V44.731h2.09V41.21Z"/><path class="cls-2" d="M54.329,44.731l2.837,10.231,2.883-10.231h2.332l2.883,10.231L68.1,44.731h2.245L66.43,57.382H64.274L61.215,46.908,58.179,57.382H56.023L52.084,44.731Z"/><path class="cls-2" d="M76.813,42.508H74.5V40.044h2.311Zm-.154,14.874h-2V44.731h2Z"/><path class="cls-2" d="M85.115,41.21v3.521h2.75v1.606h-2.75v8.4c0,1.277.99,1.365,2.09,1.365h.66v1.717c-.242.021-.506.043-1.012.043-1.3,0-3.741,0-3.741-3.08V46.337h-2.09V44.731h2.09V41.21Z"/><path class="cls-2" d="M95.739,41.21v3.521h2.75v1.606h-2.75v8.4c0,1.277.99,1.365,2.09,1.365h.66v1.717c-.242.021-.506.043-1.012.043-1.3,0-3.741,0-3.741-3.08V46.337h-2.09V44.731h2.09V41.21Z"/><path class="cls-2" d="M113.5,53.466c-.307,1.254-1.078,4.4-5.61,4.4-5.478,0-6.029-4.972-6.029-6.821,0-3.74,1.871-6.776,5.853-6.776,3.939,0,5.941,3.036,5.963,7.261H103.93c.133,2.75,1.145,4.642,3.939,4.642a3.221,3.221,0,0,0,3.52-2.706Zm-1.914-3.52c-.374-2.509-1.584-4-3.828-4-2.222,0-3.455,1.5-3.785,4Z"/><path class="cls-2" d="M120.371,44.731l.022,1.738c.374-.639,1.276-2.2,4.532-2.2h.9v2h-.991a5.728,5.728,0,0,0-2.75.572,3.619,3.619,0,0,0-1.694,3.036v7.5h-2V44.731Z"/><path class="cls-2" d="M142.788,44.092c-1.166.792-4.665,3.433-4.665,7.107,0,2.817,2.134,5.083,6.821,5.567a10.942,10.942,0,0,0-.836,2.068c-4.027-.813-7.921-3.013-7.921-7.613,0-2.882,1.694-5.962,6.007-8.537-.551.022-10.1,1.057-11.882,1.5L130,41.8c.418.022.7.044,1.122.044a125.836,125.836,0,0,0,17.339-1.937l.441,2.179A10.013,10.013,0,0,0,142.788,44.092Zm3.344,5.325a17.9,17.9,0,0,0-1.98-2.465l1.055-.813a18.666,18.666,0,0,1,2,2.4A4.793,4.793,0,0,0,146.132,49.417Zm2.178-1.606a13.879,13.879,0,0,0-1.979-2.508l1.055-.748a17.523,17.523,0,0,1,2.046,2.4A3.883,3.883,0,0,0,148.31,47.811Z"/><path class="cls-2" d="M156.774,55.8v1.166h-1.981V41.98H170.24V56.964h-1.981V55.8Zm11.485-1.782V43.762H156.774V54.016Z"/><path class="cls-2" d="M192.807,44.731c-2.091,4.928-4.731,11.2-12.807,14.433a7.367,7.367,0,0,0-1.452-1.429c3.829-1.54,9.22-4.335,12.08-13.29h-7.3a30.145,30.145,0,0,1-5.612,6.314,14.722,14.722,0,0,0-1.473-1.364,23.49,23.49,0,0,0,7.634-10.209l1.849.792c.2.088.308.154.308.307,0,.265-.33.287-.529.309-.549,1.1-.813,1.563-1.122,2.09h6.579a3.285,3.285,0,0,0,1.453-.33l1.1,1.034A9.024,9.024,0,0,0,192.807,44.731Zm-2.091-3.169a13.159,13.159,0,0,0-1.936-2.156l1.1-.859a19.017,19.017,0,0,1,1.981,2.2A5.749,5.749,0,0,0,190.716,41.562Zm3.323-.132a13.362,13.362,0,0,0-1.915-2.244l1.057-.859a22.887,22.887,0,0,1,2,2.267A4.691,4.691,0,0,0,194.039,41.43Z"/><path class="cls-2" d="M214.64,40.792a1.91,1.91,0,0,1-.439-.044,36.058,36.058,0,0,1-5.612,5.17V58.592h-2V47.305a40.94,40.94,0,0,1-7.964,3.872,9.113,9.113,0,0,0-1.431-1.672A30.238,30.238,0,0,0,212.99,38.9l1.827,1.32a.352.352,0,0,1,.176.308C214.993,40.7,214.838,40.792,214.64,40.792Z"/><path class="cls-2" d="M227.1,45.83a24.958,24.958,0,0,0-6.249-4.2L222,40a29.552,29.552,0,0,1,6.293,4.158A12.3,12.3,0,0,0,227.1,45.83Zm-4.291,11.882c-.022.374-.066.506-.308.506-.154,0-.286-.153-.352-.264l-1.189-1.98A26.07,26.07,0,0,0,237.773,43.9a12.363,12.363,0,0,0,1.21,1.716C234.054,53.575,226.4,56.436,222.811,57.712Z"/><path class="cls-2" d="M258.62,43.674c-1.3,0-2.575.023-3.873.067,0,1.518-.044,2.837.022,3.718a7.778,7.778,0,0,1,.858,3.586,9.422,9.422,0,0,1-1.98,5.589,10.609,10.609,0,0,1-3.652,2.8c-.353-.353-1.189-1.013-1.651-1.364,2.508-.991,4.29-2.244,5.082-4.929a3.386,3.386,0,0,1-2.595,1.231c-1.937,0-3.082-1.671-3.082-4.07,0-2.508,1.475-4.224,3.5-4.224a3.01,3.01,0,0,1,1.628.44c-.021-.418-.044-2.047-.044-2.685-2.507.111-6.974.485-9.417.88l-.176-2.068c1.518.022,8.185-.4,9.55-.462a25.21,25.21,0,0,0-.308-3.19l2.178.219c.308.023.528.044.528.286,0,.155-.264.265-.4.331a20.8,20.8,0,0,0-.087,2.266c6.424-.286,7.151-.308,7.723-.351a15.916,15.916,0,0,0,.044,2C261.678,43.7,260.358,43.674,258.62,43.674Zm-7.284,3.961c-1.452,0-1.958,1.474-1.958,2.706,0,.506,0,2.486,1.8,2.486,1.276,0,2.223-1.21,2.223-2.816A2.184,2.184,0,0,0,251.336,47.635Z"/><path class="cls-2" d="M275.777,58.483c-2.552,0-4.862-1.145-4.862-3.433,0-1.584,1.253-2.948,3.432-2.948a4.717,4.717,0,0,1,3.784,1.8,4.464,4.464,0,0,1,.815,2.156,4.258,4.258,0,0,0,2.926-3.96c0-2.443-1.827-4.071-4.731-4.071-3.828,0-6.139,2.157-9.659,5.831l-1.519-1.474a129.573,129.573,0,0,0,10.914-10.452,63.139,63.139,0,0,1-8.273.969l-.33-1.959c2.266.11,8.3-.242,11.243-1.254l1.034,1.3c-.506.418-6.182,5.655-6.667,6.183a9.466,9.466,0,0,1,3.719-.77c3.234,0,6.161,1.936,6.161,5.522C283.764,56.546,279.078,58.483,275.777,58.483Zm.7-3.785a3.136,3.136,0,0,0-2.267-1.012,1.4,1.4,0,0,0-1.584,1.364c0,1.519,1.914,1.914,2.905,1.914a8.662,8.662,0,0,0,1.738-.22A3.141,3.141,0,0,0,276.481,54.7Z"/></g></g></svg>