<svg xmlns="http://www.w3.org/2000/svg" xmlns:xlink="http://www.w3.org/1999/xlink" viewBox="0 0 391.654 1209.576"><defs><style>.cls-1,.cls-10,.cls-11,.cls-4{fill:#fff;}.cls-12,.cls-2,.cls-3{fill:none;}.cls-10,.cls-11,.cls-12,.cls-2,.cls-3,.cls-4,.cls-5,.cls-7,.cls-8{stroke:#fff;stroke-linecap:round;stroke-linejoin:round;}.cls-2,.cls-3{stroke-width:4px;}.cls-3{stroke-dasharray:0 12;}.cls-4,.cls-5,.cls-7,.cls-8{stroke-width:3px;}.cls-5{fill:url(#名称未設定グラデーション_8);}.cls-6{fill:url(#名称未設定グラデーション_7);}.cls-7{fill:url(#名称未設定グラデーション_8-2);}.cls-8{fill:url(#名称未設定グラデーション_8-3);}.cls-9{fill:url(#名称未設定グラデーション_8-4);}.cls-10{stroke-width:2px;}.cls-11,.cls-12{stroke-width:3.221px;}.cls-13{opacity:0.5;}</style><linearGradient id="名称未設定グラデーション_8" x1="-7357.43" y1="-2870.101" x2="-7337.453" y2="-2870.101" gradientTransform="translate(-7176.435 -2425.438) rotate(180)" gradientUnits="userSpaceOnUse"><stop offset="0.002" stop-color="#35b597"/><stop offset="1" stop-color="#00a968"/></linearGradient><linearGradient id="名称未設定グラデーション_7" x1="209.21" y1="486.487" x2="284.435" y2="486.487" gradientUnits="userSpaceOnUse"><stop offset="0.002" stop-color="#00b4ed"/><stop offset="1" stop-color="#0091db"/></linearGradient><linearGradient id="名称未設定グラデーション_8-2" x1="210.71" y1="461.147" x2="267.755" y2="461.147" gradientTransform="matrix(1, 0, 0, 1, 0, 0)" xlink:href="#名称未設定グラデーション_8"/><linearGradient id="名称未設定グラデーション_8-3" x1="-7357.43" y1="-3194.061" x2="-7337.453" y2="-3194.061" xlink:href="#名称未設定グラデーション_8"/><linearGradient id="名称未設定グラデーション_8-4" x1="169.192" y1="808.828" x2="221.751" y2="808.828" gradientTransform="matrix(1, 0, 0, 1, 0, 0)" xlink:href="#名称未設定グラデーション_8"/></defs><title>howto_txt_support</title><g id="レイヤー_2" data-name="レイヤー 2"><g id="layout"><rect class="cls-1" x="146.752" y="67.946" width="100" height="5"/><path class="cls-1" d="M127.731,34.955h-3.953V16.717a31.29,31.29,0,0,1-2.773,3.838,13.507,13.507,0,0,0-2.507-2.926c4.521-5.243,7.561-13.715,8.473-17.629L130.5,1.064c.456.152.8.3.8.608,0,.57-.873.683-1.14.76a70.962,70.962,0,0,1-2.926,7.751c.685.19,1.216.379,1.216.721,0,.3-.455.494-.721.608Zm8.358-14.172h-4.331V9.157h8.7V6.573h-9.916V3.343h9.916V.114l3.876.152c.418,0,.987.038.987.532,0,.418-.493.646-.987.722V3.343h10.3v3.23h-10.3V9.157h8.815V20.783h-8.966a19.049,19.049,0,0,1-1.9,5.813c2.128,1.444,5.813,3.61,13.071,4.825a12.01,12.01,0,0,0-2.09,3.686,43.076,43.076,0,0,1-12.956-5.624,23.264,23.264,0,0,1-9.043,5.548,8.9,8.9,0,0,0-2.546-3.268c.912-.266,5.775-1.672,8.625-4.673a24.494,24.494,0,0,1-3.8-4.294Zm4.369-3.382V12.538h-4.976V17.4Zm-4.331,3.382a37.011,37.011,0,0,0,3.153,3.533,10.515,10.515,0,0,0,1.065-3.533Zm8.207-8.245V17.4h5.091V12.538Z"/><path class="cls-1" d="M167.536,4.065c.532.152.8.228.8.608,0,.456-.494.532-.836.532a36.543,36.543,0,0,0-1.823,11.4c0,6.192,2.355,10.9,4.142,10.9,1.632,0,3.609-4.863,4.482-7.067a12.308,12.308,0,0,0,2.774,2.583c-.684,1.672-3.836,9.537-7.485,9.537-3.115,0-7.826-5.775-7.826-16.565a68.428,68.428,0,0,1,1.633-13.184Zm19.453.76a38.264,38.264,0,0,1,7.561,19.453c-.608.19-3.154,1.33-4.18,1.786a33.341,33.341,0,0,0-6.724-19.149Z"/><path class="cls-1" d="M216.232,1.709c.418.115.683.229.683.533,0,.228-.228.57-.95.646-.075.455-1.063,4.711-1.253,5.547,3.267-.19,9.422-.342,9.422,8.7,0,5.661-1.861,11.171-3.686,13.6a6.407,6.407,0,0,1-5.585,2.66,19.779,19.779,0,0,1-3.876-.456,18.023,18.023,0,0,0-.3-4.369,8.518,8.518,0,0,0,3.723.836,3.481,3.481,0,0,0,3.344-1.634A20.508,20.508,0,0,0,220.3,17.591c0-4.863-2.2-5.585-4.406-5.585a18.7,18.7,0,0,0-2.129.152,59.081,59.081,0,0,1-10.145,21.049,19.134,19.134,0,0,0-3.76-2.014,47.256,47.256,0,0,0,9.8-18.389,49.045,49.045,0,0,0-7.713,2.242l-1.405-4.027c1.633-.3,8.662-1.9,10.106-2.128A58.548,58.548,0,0,0,211.9.342Zm10.79,2.7c4.445,4.75,6.953,10.829,6.953,13.754,0,2.394-1.482,4.294-6.5,5.13a22.707,22.707,0,0,0-1.6-3.382c1.9-.342,4.064-.8,4.064-2.584,0-1.291-1.405-6.041-6-10.98Z"/><path class="cls-1" d="M255.554,1.292c.494.114.722.3.722.532,0,.456-.533.531-.722.57-.19.759-1.026,4.255-1.178,4.977a29.775,29.775,0,0,0,7.751-2.052l.646,3.913a57.921,57.921,0,0,1-9.422,1.938,85.425,85.425,0,0,1-10.184,23.1A30.057,30.057,0,0,0,239.33,32.3c2.281-2.774,6.8-9.954,9.841-20.555a69.8,69.8,0,0,1-8.055.38l-.341-4.141c.911.076,1.9.152,3.38.152,2.546,0,4.75-.19,5.965-.266a62.2,62.2,0,0,0,1.1-7.637ZM258.9,23.784a5.942,5.942,0,0,0-1.634,3.572c0,1.519,1.786,2.47,7.18,2.47a29.4,29.4,0,0,0,8.093-1.254,15.458,15.458,0,0,0-.151,2.09,8.86,8.86,0,0,0,.227,2.089,45.108,45.108,0,0,1-8.092.722c-2.47,0-10.868,0-10.868-5.813,0-1.672.571-3.04,1.939-5.167Zm-1.407-9.536a58.721,58.721,0,0,1,8.7-.646,33.077,33.077,0,0,1,5.546.38,25.938,25.938,0,0,0-.3,3.875,26.566,26.566,0,0,0-5.661-.532,64.447,64.447,0,0,0-8.284.646Z"/><path class="cls-1" d="M127.253,195.76c24.456,0,37.83-20.219,37.83-37.751,0-.575-.012-1.147-.039-1.716a26.989,26.989,0,0,0,6.633-6.869,26.583,26.583,0,0,1-7.635,2.088,13.32,13.32,0,0,0,5.847-7.34,26.682,26.682,0,0,1-8.443,3.221,13.3,13.3,0,0,0-22.659,12.1,37.778,37.778,0,0,1-27.4-13.863,13.259,13.259,0,0,0,4.116,17.713,13.217,13.217,0,0,1-6.022-1.66c0,.056,0,.111,0,.17a13.28,13.28,0,0,0,10.667,13.007,13.3,13.3,0,0,1-6,.228,13.307,13.307,0,0,0,12.421,9.215,26.718,26.718,0,0,1-16.514,5.68,27.033,27.033,0,0,1-3.172-.184,37.7,37.7,0,0,0,20.382,5.96"/><path class="cls-1" d="M284.058,169.48a32.179,32.179,0,1,0-37.207,31.987V178.84h-8.17v-9.36h8.17v-7.133c0-8.116,4.805-12.6,12.155-12.6a49.226,49.226,0,0,1,7.2.632v7.969h-4.058c-4,0-5.244,2.5-5.244,5.056v6.074h8.925l-1.427,9.36h-7.5v22.627A32.326,32.326,0,0,0,284.058,169.48Z"/><path class="cls-1" d="M45.913,262.51v3.521h2.75v1.605h-2.75v8.406c0,1.276.99,1.364,2.09,1.364h.66v1.717c-.242.021-.506.044-1.011.044-1.3,0-3.741,0-3.741-3.082v-8.449h-2.09v-1.605h2.09V262.51Z"/><path class="cls-1" d="M54.581,266.031l2.838,10.231L60.3,266.031h2.332l2.883,10.231,2.838-10.231H70.6l-3.916,12.651H64.527l-3.059-10.474-3.037,10.474H56.275l-3.938-12.651Z"/><path class="cls-1" d="M77.066,263.808H74.755v-2.465h2.311Zm-.155,14.874h-2V266.031h2Z"/><path class="cls-1" d="M85.366,262.51v3.521h2.75v1.605h-2.75v8.406c0,1.276.991,1.364,2.09,1.364h.66v1.717c-.242.021-.5.044-1.011.044-1.3,0-3.741,0-3.741-3.082v-8.449H81.275v-1.605h2.089V262.51Z"/><path class="cls-1" d="M95.991,262.51v3.521h2.75v1.605h-2.75v8.406c0,1.276.991,1.364,2.09,1.364h.66v1.717c-.242.021-.5.044-1.011.044-1.3,0-3.743,0-3.743-3.082v-8.449H91.9v-1.605h2.089V262.51Z"/><path class="cls-1" d="M113.753,274.765c-.307,1.255-1.078,4.4-5.609,4.4-5.479,0-6.03-4.973-6.03-6.822,0-3.74,1.872-6.777,5.854-6.777,3.937,0,5.939,3.037,5.963,7.262h-9.748c.133,2.75,1.144,4.642,3.937,4.642a3.222,3.222,0,0,0,3.522-2.707Zm-1.914-3.52c-.373-2.508-1.584-4-3.828-4-2.223,0-3.455,1.5-3.785,4Z"/><path class="cls-1" d="M120.622,266.031l.024,1.738c.373-.639,1.275-2.2,4.531-2.2h.9v2h-.99a5.724,5.724,0,0,0-2.75.572,3.62,3.62,0,0,0-1.693,3.036v7.5h-2V266.031Z"/><path class="cls-1" d="M135.12,279.716a18.877,18.877,0,0,0-4.467-4.247l1.233-1.275a28.443,28.443,0,0,1,4.773,3.916Z"/><path class="cls-1" d="M160.487,278.462a14.629,14.629,0,0,0-5.9-3.169c0,.243.021.573.021.815,0,1.276-.242,3.5-4.158,3.5-3.037,0-4.994-1.5-4.994-3.19,0-2.311,2.883-3.212,5.17-3.212a17.917,17.917,0,0,1,1.959.153c-.021-.7-.045-.924-.066-2.662-1.079.044-1.518.066-2.112.066-1.211,0-4.49,0-4.49-1.717,0-.769.508-1.429,1.563-2.354l1.5.528c-.682.551-1.055.836-1.055,1.233,0,.572,1.8.593,2.7.593.947.023,1.629,0,1.85-.021-.024-1.1-.045-2.729-.045-3.829-3.9.154-6.227.418-7.5.572v-1.914c1.189-.088,6.426-.308,7.5-.374-.022-1.606-.022-2.156-.11-3.059l2.311.4c.176.021.351.132.351.286,0,.241-.308.308-.484.329-.045.485-.109,1.255-.109,2,1.078-.022,5.83-.11,6.8-.066l-.022,1.848c-1.057-.066-2.641-.175-6.8-.088-.021.748-.021,1.056-.021,3.785a31.283,31.283,0,0,0,6.271-.991v1.914a42.082,42.082,0,0,1-6.226.749c0,.594.064,2.575.088,3.081a19.1,19.1,0,0,1,7.283,3.19A18.124,18.124,0,0,0,160.487,278.462Zm-7.876-3.564a6.007,6.007,0,0,0-1.848-.221c-2.026,0-3.434.595-3.434,1.717,0,1.518,2.487,1.606,2.84,1.606,2.486,0,2.486-1.5,2.486-2.222C152.655,275.425,152.632,275.162,152.611,274.9Z"/><path class="cls-1" d="M174.05,266.4a48.772,48.772,0,0,1-5.918,13.531c-.529-.33-1.387-.726-1.871-.968a37.5,37.5,0,0,0,5.766-12.3,46.621,46.621,0,0,1-4.864.243l-.154-2c.506.022,1.035.066,1.826.066,1.453,0,2.795-.088,3.631-.154a28.872,28.872,0,0,0,.66-4.511l2.135.551c.33.088.439.2.439.307,0,.243-.33.309-.439.309-.133.483-.617,2.662-.727,3.1a18.347,18.347,0,0,0,4.776-1.21l.351,1.87A35.46,35.46,0,0,1,174.05,266.4Zm6.58,13.069c-1.387,0-6.184,0-6.184-3.3a5.19,5.19,0,0,1,1.211-3.057l1.627.7a3.749,3.749,0,0,0-1.078,2.222c0,1.408,2.244,1.672,4.379,1.672a16.289,16.289,0,0,0,4.688-.7c-.024.264-.045.528-.045.924a4.627,4.627,0,0,0,.109,1.122A26.453,26.453,0,0,1,180.63,279.474Zm4.025-9.264a17.881,17.881,0,0,0-3.277-.285,36.319,36.319,0,0,0-4.842.374v-1.782a33.638,33.638,0,0,1,5.084-.374,20.007,20.007,0,0,1,3.235.22A10.254,10.254,0,0,0,184.655,270.21Z"/><path class="cls-1" d="M193.04,279.21l-1.672.331a29.388,29.388,0,0,1-1.056-8.23,46.385,46.385,0,0,1,1.211-10.319l2,.7c.2.065.351.11.351.33,0,.154-.2.307-.594.33a35.915,35.915,0,0,0-1.189,9.175c0,1.629.133,2.751.2,3.564.264-.55,1.254-3.013,1.475-3.5a7.642,7.642,0,0,0,1.078,1.277A13.746,13.746,0,0,0,193.04,279.21Zm14.985-1.606a12.432,12.432,0,0,0-3.631-2.288c.22,3.608-3.367,3.894-4.028,3.894-2.156,0-3.849-1.43-3.849-3.212,0-2.025,2-3.147,4.136-3.147a8.478,8.478,0,0,1,1.672.176c-.132-1.43-.154-1.87-.242-5.83a27.828,27.828,0,0,1-3.806.242c-.77,0-1.276-.045-1.8-.066v-1.915a22.6,22.6,0,0,0,2.51.132c.548,0,1.429,0,3.056-.132,0-1.122.024-2.948.045-4.51l2.223.33c.154.021.351.088.351.264,0,.264-.351.33-.505.352-.133,1.056-.176,2.332-.221,3.322a25.356,25.356,0,0,0,3.851-.88v1.848c-.529.132-1.562.4-3.873.771a54.61,54.61,0,0,0,.309,6.424,15.821,15.821,0,0,1,4.752,2.6A15.543,15.543,0,0,0,208.025,277.6Zm-5.5-2.9a4.915,4.915,0,0,0-1.87-.33c-1.431,0-2.486.528-2.486,1.65,0,1.056,1.188,1.628,2.311,1.628a1.944,1.944,0,0,0,2.156-2.068A5.008,5.008,0,0,0,202.523,274.7Z"/><path class="cls-1" d="M214.552,266.031v-1.783c0-2.354,1.187-3.388,3.432-3.388h1.32v1.694h-1.166c-1.32,0-1.584.682-1.584,1.672v1.805h2.75v1.605h-2.75v11.046h-2V267.636h-2.135v-1.605Z"/><path class="cls-1" d="M223.4,269.683c.088-2.86,2.575-4.115,5.282-4.115,1.759,0,5.17.639,5.17,4.181v6.8a2.911,2.911,0,0,0,.55,1.849v.286h-2.156a3.236,3.236,0,0,1-.375-1.562,6.269,6.269,0,0,1-4.642,2.047c-2,0-4.555-.991-4.555-3.895,0-3.015,2.6-3.411,6.822-4.093,1.561-.242,2.4-.374,2.4-1.628,0-.507-.309-2.31-3.213-2.31-1.826,0-3.192.7-3.3,2.442Zm8.471,2.442a5.885,5.885,0,0,1-2.529.638c-3.7.55-4.578,1.013-4.578,2.465,0,.924.638,2.244,2.773,2.244,2.574,0,4.334-1.87,4.334-3.014Z"/><path class="cls-1" d="M250.265,274.017c-.221,3.873-3.125,5.15-5.766,5.15-4.51,0-6.051-3.543-6.051-6.711,0-3.191,1.43-6.888,6.139-6.888,3.3,0,5.324,1.871,5.566,5.061h-2.111a3.228,3.228,0,0,0-3.564-3.388c-3.213,0-3.94,2.662-3.94,5.038,0,3.1,1.1,5.193,4.028,5.193a3.192,3.192,0,0,0,3.519-3.455Z"/><path class="cls-1" d="M266.028,274.765c-.308,1.255-1.078,4.4-5.611,4.4-5.478,0-6.029-4.973-6.029-6.822,0-3.74,1.871-6.777,5.853-6.777,3.94,0,5.942,3.037,5.963,7.262h-9.748c.133,2.75,1.145,4.642,3.94,4.642a3.22,3.22,0,0,0,3.519-2.707Zm-1.914-3.52c-.375-2.508-1.584-4-3.828-4-2.222,0-3.455,1.5-3.785,4Z"/><path class="cls-1" d="M272.907,261.343v6.381a4.332,4.332,0,0,1,3.9-2.156c2.574,0,5.281,1.959,5.281,6.821,0,4.379-2.31,6.778-5.236,6.778a4.37,4.37,0,0,1-3.94-2.179l-.043,1.694H270.9V261.343Zm0,11.025c0,4.488,2.422,5.1,3.543,5.1.815,0,3.543-.33,3.543-5.1,0-4.555-2.465-5.127-3.543-5.127C275.593,267.241,272.907,267.615,272.907,272.368Z"/><path class="cls-1" d="M298.068,272.368c0,5.1-3.168,6.8-5.9,6.8-3.213,0-5.92-2.179-5.92-6.69,0-5.984,3.961-6.909,5.92-6.909C294.878,265.568,298.068,267.218,298.068,272.368Zm-9.725,0c0,2.112.99,5.1,3.828,5.1s3.807-3.037,3.807-5.1c0-2.091-.969-5.127-3.807-5.127S288.343,270.255,288.343,272.368Z"/><path class="cls-1" d="M314.054,272.368c0,5.1-3.17,6.8-5.9,6.8-3.211,0-5.918-2.179-5.918-6.69,0-5.984,3.961-6.909,5.918-6.909C310.862,265.568,314.054,267.218,314.054,272.368Zm-9.727,0c0,2.112.991,5.1,3.828,5.1s3.807-3.037,3.807-5.1c0-2.091-.967-5.127-3.807-5.127S304.327,270.255,304.327,272.368Z"/><path class="cls-1" d="M320.794,261.343v10.672l6.094-5.984h2.752l-4.731,4.62,5.325,8.031h-2.508l-4.225-6.733-2.707,2.421v4.312h-2V261.343Z"/><path class="cls-1" d="M346.767,265.392c-1.166.792-4.666,3.433-4.666,7.108,0,2.816,2.135,5.082,6.822,5.566a11.009,11.009,0,0,0-.836,2.068c-4.027-.814-7.922-3.014-7.922-7.613,0-2.882,1.694-5.963,6.008-8.537-.551.022-10.1,1.057-11.883,1.5l-.308-2.376c.418.021.7.044,1.123.044a125.857,125.857,0,0,0,17.338-1.937l.441,2.179A10.013,10.013,0,0,0,346.767,265.392Zm3.344,5.325a17.866,17.866,0,0,0-1.981-2.465l1.057-.813a18.654,18.654,0,0,1,2,2.4A4.792,4.792,0,0,0,350.111,270.717Zm2.177-1.606a13.837,13.837,0,0,0-1.98-2.509l1.056-.748a17.6,17.6,0,0,1,2.047,2.4A3.869,3.869,0,0,0,352.288,269.111Z"/><path class="cls-1" d="M118.648,315.6v1.166h-1.981V301.78h15.445v14.984h-1.98V315.6Zm11.484-1.782V303.562H118.648v10.254Z"/><path class="cls-1" d="M154.681,304.531c-2.09,4.928-4.731,11.2-12.807,14.433a7.357,7.357,0,0,0-1.451-1.429c3.828-1.541,9.219-4.335,12.08-13.29h-7.3a30.207,30.207,0,0,1-5.611,6.314,14.63,14.63,0,0,0-1.475-1.364,23.477,23.477,0,0,0,7.635-10.209l1.85.792c.2.088.306.153.306.307,0,.265-.33.287-.527.309-.551,1.1-.814,1.562-1.123,2.09h6.58a3.275,3.275,0,0,0,1.451-.33l1.1,1.034A9.157,9.157,0,0,0,154.681,304.531Zm-2.09-3.169a13.193,13.193,0,0,0-1.938-2.156l1.1-.859a19.007,19.007,0,0,1,1.981,2.2A5.693,5.693,0,0,0,152.591,301.362Zm3.322-.132A13.293,13.293,0,0,0,154,298.986l1.057-.859a22.9,22.9,0,0,1,2,2.267A4.655,4.655,0,0,0,155.913,301.23Z"/><path class="cls-1" d="M176.513,300.591a1.922,1.922,0,0,1-.44-.044,36.042,36.042,0,0,1-5.611,5.171v12.674h-2V307.105a40.955,40.955,0,0,1-7.965,3.872,9.04,9.04,0,0,0-1.429-1.672,30.237,30.237,0,0,0,15.8-10.605l1.829,1.32a.351.351,0,0,1,.175.308C176.866,300.5,176.712,300.591,176.513,300.591Z"/><path class="cls-1" d="M188.976,305.63a24.956,24.956,0,0,0-6.25-4.2l1.144-1.629a29.552,29.552,0,0,1,6.293,4.159A12.2,12.2,0,0,0,188.976,305.63Zm-4.291,11.882c-.024.374-.067.506-.309.506-.154,0-.285-.154-.351-.264l-1.19-1.98a26.071,26.071,0,0,0,16.811-12.08,12.318,12.318,0,0,0,1.211,1.717C195.927,313.375,188.271,316.236,184.685,317.512Z"/><path class="cls-1" d="M211.907,318.216c-4.531,0-4.664-4.51-4.664-8.052,0-1.563.287-8.362.287-9.748a8.7,8.7,0,0,0-.066-1.233l2.332.309c.33.044.527.088.527.286s-.306.351-.572.395a95.219,95.219,0,0,0-.549,10.1c0,3.74.264,6.007,2.838,6.007,4.555,0,7.9-5.017,8.647-6.6a7.4,7.4,0,0,0,1.453,1.628C218.245,317.556,213.736,318.216,211.907,318.216Z"/><path class="cls-1" d="M242.189,316.962a14.65,14.65,0,0,0-5.9-3.169c0,.243.022.573.022.815,0,1.276-.243,3.5-4.159,3.5-3.037,0-5-1.5-5-3.19,0-2.311,2.883-3.212,5.172-3.212a17.919,17.919,0,0,1,1.957.153c-.021-.7-.043-.924-.064-2.662-1.078.044-1.52.066-2.113.066-1.209,0-4.489,0-4.489-1.717,0-.769.506-1.429,1.563-2.354l1.5.528c-.682.551-1.057.836-1.057,1.233,0,.572,1.805.593,2.707.593.946.023,1.627,0,1.848-.021-.022-1.1-.043-2.729-.043-3.829-3.895.154-6.229.418-7.5.572v-1.914c1.187-.088,6.426-.308,7.5-.374-.024-1.606-.024-2.156-.111-3.059l2.31.4c.176.021.352.132.352.286,0,.241-.307.308-.483.329-.045.485-.111,1.255-.111,2,1.078-.022,5.832-.11,6.8-.066l-.022,1.848c-1.056-.066-2.64-.175-6.8-.088-.021.748-.021,1.056-.021,3.785a31.266,31.266,0,0,0,6.269-.991v1.914a42.049,42.049,0,0,1-6.226.749c0,.594.066,2.575.088,3.081a19.061,19.061,0,0,1,7.283,3.19A17.627,17.627,0,0,0,242.189,316.962Zm-7.877-3.564a6.012,6.012,0,0,0-1.85-.221c-2.023,0-3.432.595-3.432,1.717,0,1.518,2.487,1.606,2.838,1.606,2.487,0,2.487-1.5,2.487-2.222C234.355,313.925,234.333,313.662,234.312,313.4Z"/><path class="cls-1" d="M263.7,303.474c-1.3,0-2.574.023-3.873.067,0,1.517-.043,2.837.024,3.717a7.791,7.791,0,0,1,.857,3.587,9.415,9.415,0,0,1-1.98,5.589,10.583,10.583,0,0,1-3.653,2.794,21.4,21.4,0,0,0-1.65-1.364c2.508-.989,4.291-2.244,5.082-4.929a3.381,3.381,0,0,1-2.6,1.232c-1.935,0-3.08-1.671-3.08-4.07,0-2.509,1.475-4.224,3.5-4.224a3,3,0,0,1,1.629.44c-.021-.419-.045-2.047-.045-2.685-2.507.11-6.974.484-9.416.88l-.177-2.068c1.519.022,8.185-.4,9.55-.462a25.169,25.169,0,0,0-.308-3.19l2.178.219c.308.023.529.044.529.286,0,.155-.264.264-.4.331a20.427,20.427,0,0,0-.088,2.266c6.424-.286,7.151-.308,7.723-.352a16.141,16.141,0,0,0,.045,2C266.755,303.5,265.435,303.474,263.7,303.474Zm-7.283,3.961c-1.451,0-1.957,1.474-1.957,2.706,0,.506,0,2.486,1.8,2.486,1.277,0,2.223-1.21,2.223-2.816A2.184,2.184,0,0,0,256.413,307.435Z"/><path class="cls-1" d="M275.6,318.26a2.828,2.828,0,1,1,2.838-2.816A2.827,2.827,0,0,1,275.6,318.26Zm0-4.6a1.772,1.772,0,1,0,1.783,1.782A1.774,1.774,0,0,0,275.6,313.662Z"/><line class="cls-2" x1="17.752" y1="379.322" x2="17.752" y2="379.322"/><line class="cls-3" x1="29.752" y1="379.322" x2="371.752" y2="379.322"/><line class="cls-2" x1="377.752" y1="379.322" x2="377.752" y2="379.322"/><path class="cls-1" d="M46.812,607.588v-1.671H35.48v1.671H33.587V590.581h4.467a19.39,19.39,0,0,0,1.187-3.324l1.959.353c.264.044.528.132.528.374,0,.286-.33.33-.682.374-.484,1.166-.727,1.672-1.012,2.223H48.7v17.007Zm0-15.357H35.48v2.926H46.812Zm0,4.51H35.48v2.97H46.812Zm0,4.554H35.48v2.971H46.812Z"/><path class="cls-1" d="M62.581,589.415c.155.087.264.2.264.329,0,.264-.307.264-.682.242a25.87,25.87,0,0,1-6.865,7.767,4.082,4.082,0,0,0-1.43-1.408,21.454,21.454,0,0,0,7.063-7.987Zm-3.916,7.678v-1.76H70.546c0,.44-.021,8.3-1.275,10.385-.594,1.013-1.387,1.849-4.93,1.761a5.091,5.091,0,0,0-.57-2.024,9.3,9.3,0,0,0,1.672.131c1.781,0,2.31-.461,2.617-2.089a37.729,37.729,0,0,0,.506-6.4H63.923a10.742,10.742,0,0,1-2.75,7.085,14.3,14.3,0,0,1-4.643,3.389,4.94,4.94,0,0,0-1.32-1.54c6.668-2.729,6.844-7.46,6.91-8.934Zm10.143-8.955a12.71,12.71,0,0,0,6.2,7.965,5.094,5.094,0,0,0-1.276,1.694,17.707,17.707,0,0,1-6.4-7.943h-3.3v-1.716Z"/><path class="cls-1" d="M95.153,603.672a12.651,12.651,0,0,1-5.257,2.993,8.969,8.969,0,0,0-1.256-1.695c6.558-1.386,7.24-5.963,7.24-7.745a6.335,6.335,0,0,0-6.689-6.469,31.72,31.72,0,0,1-2.4,10.144c-1.211,2.86-2.265,4.026-3.476,4.026-1.629,0-4.137-2.552-4.137-6.161a10.133,10.133,0,0,1,9.99-9.747c4.709,0,8.6,3.147,8.6,8.163A9.388,9.388,0,0,1,95.153,603.672Zm-14.169-5.016c0,2.376,1.3,4.114,2.244,4.114.924,0,1.738-2.09,2.265-3.477a25.726,25.726,0,0,0,1.717-8.251A8.25,8.25,0,0,0,80.984,598.656Z"/><path class="cls-1" d="M112.013,587.631c.242.023.551.089.551.286,0,.221-.176.287-.661.463-.021.55-.042,2.728-.066,3.741H120.6c0,2.728,0,11.507-1.672,13.927-.551.792-1.43,1.628-4.973,1.475a5.69,5.69,0,0,0-.836-2.156,13.038,13.038,0,0,0,2.245.241c1.5,0,2.156-.264,2.662-2.684a46.367,46.367,0,0,0,.66-9.065h-6.865c-.176,8.713-5.567,12.388-8.538,13.817a6.545,6.545,0,0,0-1.429-1.5,12.8,12.8,0,0,0,8.119-12.321h-7.482v-1.738h7.482V587.5Z"/><path class="cls-1" d="M129.427,606.224l-1.738.528a21.529,21.529,0,0,1-1.3-7.964,47.565,47.565,0,0,1,1.387-10.65l1.98.748c.352.132.461.22.461.33,0,.242-.264.264-.506.308a31.306,31.306,0,0,0-1.5,9.659,19.1,19.1,0,0,0,.264,3.389,27.627,27.627,0,0,1,1.408-3.542,3.479,3.479,0,0,0,1.078,1.122A14.434,14.434,0,0,0,129.427,606.224Zm14.742-1.517a35.766,35.766,0,0,1-5.105.33c-2.729,0-6.184-.265-6.184-3.1a7.494,7.494,0,0,1,.9-3.278l1.717.351a5.079,5.079,0,0,0-.836,2.487c0,1.408,1.606,1.76,4.268,1.76a21.568,21.568,0,0,0,5.369-.616A13.016,13.016,0,0,0,144.169,604.707Zm-8.252-12.058c-1.012,0-1.672-.044-2.2-.066v-1.849a18.179,18.179,0,0,0,2.223.11,29.407,29.407,0,0,0,6.953-.7c.021.176.176,1.32.242,1.893A40.305,40.305,0,0,1,135.917,592.649Z"/><path class="cls-1" d="M156.1,593.067a45.31,45.31,0,0,1-5.127,10.781c-.571-.286-.879-.418-1.782-.792a39.852,39.852,0,0,0,4.864-9.747,34.245,34.245,0,0,1-4.16.153l-.243-1.936a17.963,17.963,0,0,0,2.289.133,20.93,20.93,0,0,0,2.663-.155,36.636,36.636,0,0,0,.923-3.982l2,.55c.241.066.352.132.352.286,0,.242-.287.264-.463.286-.352,1.189-.461,1.563-.77,2.574a20.5,20.5,0,0,0,3.631-.946,9.277,9.277,0,0,0,.043,1.914A31.726,31.726,0,0,1,156.1,593.067Zm10.254,13.224a20.06,20.06,0,0,0-3.719-2.6c.021,3.367-3.235,3.367-3.983,3.367-2.464,0-4.445-1.167-4.445-3.213,0-1.5,1.123-3.036,3.961-3.036a8.466,8.466,0,0,1,2.443.374,15.267,15.267,0,0,1-.263-2.421,4.143,4.143,0,0,1,1.539-3.058l1.541,1.034a2.8,2.8,0,0,0-1.19,2.377,12.959,12.959,0,0,0,.33,2.662,23.814,23.814,0,0,1,4.93,3.058C167.083,605.323,166.8,605.718,166.357,606.291Zm-8.141-4.005c-1.166,0-2.268.484-2.268,1.562,0,1.672,2.465,1.672,2.577,1.672,2.462,0,2.375-1.584,2.332-2.6A5.921,5.921,0,0,0,158.216,602.286Zm8.734-6.227a14.076,14.076,0,0,0-5.675-2.86l1.054-1.563a15.45,15.45,0,0,1,5.678,2.8C167.655,594.958,167.237,595.575,166.95,596.059Z"/><path class="cls-1" d="M188.681,606.136c-.463,0-2.926-.176-2.926-4.158,0-.572.2-2.112.352-3.631.175-1.54.33-3.058.33-3.564,0-.4-.024-1.452-1.145-1.452-1.848,0-4.885,3.058-6.205,4.621a80.491,80.491,0,0,0,.264,9.329l-2.135.088c.09-1.365.09-3.1.09-3.7,0-1.034,0-1.255.021-3.3-1.695,2.442-2.42,3.476-3.234,4.818l-1.475-1.5a62.7,62.7,0,0,0,4.8-7.129c0-.242.022-1.3.022-1.518a24.335,24.335,0,0,1-4.159,1.012l-.462-2a17.728,17.728,0,0,0,4.666-.858c0-.859.043-3.587.043-4.555,0-.374-.022-.66-.043-.968l1.935.241c.242.023.527.111.527.353,0,.264-.306.308-.439.33-.043.594-.154,1.694-.242,3.939a8.342,8.342,0,0,0,.814-.462l.836.946A21.281,21.281,0,0,0,179.88,595c.857-.835,3.52-3.476,5.9-3.476,2.529,0,2.529,2.531,2.529,3.1,0,.441-.043.837-.461,4.358a29.285,29.285,0,0,0-.242,3.124c0,1.034.218,2.09,1.32,2.09.748,0,1.869-.594,2.992-2.332.131.286.682,1.584.815,1.826A6.051,6.051,0,0,1,188.681,606.136Z"/><path class="cls-1" d="M206.183,607.061c-2.553,0-4.864-1.144-4.864-3.433,0-1.585,1.254-2.948,3.434-2.948a4.715,4.715,0,0,1,3.783,1.8,4.453,4.453,0,0,1,.815,2.156,4.257,4.257,0,0,0,2.926-3.96c0-2.442-1.827-4.071-4.731-4.071-3.828,0-6.139,2.156-9.658,5.831l-1.52-1.475a129.26,129.26,0,0,0,10.914-10.451,62.82,62.82,0,0,1-8.273.968l-.33-1.958c2.267.11,8.295-.242,11.244-1.254l1.033,1.3c-.506.418-6.181,5.655-6.666,6.182a9.487,9.487,0,0,1,3.719-.769c3.234,0,6.16,1.936,6.16,5.522C214.169,605.125,209.484,607.061,206.183,607.061Zm.7-3.785a3.134,3.134,0,0,0-2.266-1.012,1.4,1.4,0,0,0-1.584,1.364c0,1.518,1.914,1.914,2.905,1.914a8.752,8.752,0,0,0,1.738-.219A3.15,3.15,0,0,0,206.886,603.276Z"/><path class="cls-1" d="M228.362,606.422c-5.06,0-8.185-1.034-8.185-4,0-1.319.793-2.9,3.389-5.082l1.386,1.144c-.439.353-2.861,2.267-2.861,3.829a1.48,1.48,0,0,0,.75,1.364c1.561.9,4.6.924,5.3.924a28.747,28.747,0,0,0,8.207-1.012c.2.924.33,1.474.482,1.98A43.471,43.471,0,0,1,228.362,606.422ZM228.12,595.4c-.791-.88-.879-.99-1.166-1.3.44-.309,2.332-1.8,2.729-2.091.66-.462.726-.528,1.1-.813-1.011.088-3.388.285-6.269.285-1.432,0-1.959-.022-2.774-.088l-.175-2.024a29.044,29.044,0,0,0,5.632.286,37.411,37.411,0,0,0,7.174-.55l1.012,1.475A28.349,28.349,0,0,0,228.12,595.4Z"/><path class="cls-1" d="M249.538,596.917c-1.166.572-5.039,2.443-5.039,5.039,0,2.9,5.039,2.9,6.514,2.9a25.932,25.932,0,0,0,7.348-1.056,7.247,7.247,0,0,0-.155,2.2,41.574,41.574,0,0,1-7.062.661c-3.741,0-5.346-.594-6.381-1.123a4.056,4.056,0,0,1-2.266-3.564c0-2.816,2.508-4.577,4.928-5.919-1.188-1.254-1.43-2.772-1.672-5.369a9.023,9.023,0,0,0-.439-2.486l2.529-.528c-.065.9-.109,1.5-.109,2.09,0,2.068.22,4.181,1.253,5.479.991-.484,2.356-1.1,3.829-1.651,1.607-.615,4.423-1.716,4.8-1.87l.836,2.156A37.357,37.357,0,0,0,249.538,596.917Z"/><path class="cls-1" d="M275.6,598.326c.045.549.109,1.452.109,2.574,0,.924-.043,1.562-.088,2.09-1.209-.022-1.56,0-1.914,0a20.854,20.854,0,0,0,.112-2.376c0-.7-.024-1.145-.045-1.475-4.246,2.069-4.555,3.345-4.555,4.159,0,.638,0,1.87,4.488,1.87a26.117,26.117,0,0,0,6.711-.879,9.045,9.045,0,0,0-.219,2.024,26.644,26.644,0,0,1-5.632.527c-1.784,0-7.086,0-7.086-3.5,0-2.333,2.531-4.268,6.072-5.919a2,2,0,0,0-2.244-1.738,5.421,5.421,0,0,0-3.959,2.156,25.651,25.651,0,0,0-2.334,3.124l-1.539-1.21a43.312,43.312,0,0,0,5.457-7.5c-2.4.111-2.774.111-4.467.088v-1.847a30.208,30.208,0,0,0,3.168.132c.439,0,1.3,0,2.178-.067a18.414,18.414,0,0,0,1.344-3.212l1.8.418c.176.044.485.11.485.374,0,.242-.352.308-.594.33-.264.594-.506,1.122-.9,1.914a27.765,27.765,0,0,0,5.787-1.21l.043,1.936c-2.6.528-5.5.881-6.754,1.013-.639,1.143-1.188,1.958-1.7,2.75a5.089,5.089,0,0,1,2.465-.638,3.39,3.39,0,0,1,3.477,2.376c.814-.352,4.4-1.826,5.105-2.178l.748,1.98A51.78,51.78,0,0,0,275.6,598.326Z"/><path class="cls-1" d="M285,600.064v-1.211h9.221v-1.3h-7.4v-1.188h7.4v-1.232h-6.734V593.9h6.734V592.67h-9.285v-1.253h9.285v-1.189h-6.69v-1.21h6.69v-1.65l1.76.132c.2.022.506.066.506.264,0,.176-.176.242-.573.374v.88h6.25v2.4h3.059v1.253h-3.059v2.465h-6.25v1.232h7.723v1.188h-7.723v1.3h9.33v1.211Zm15.2,7.591v-.7H289.927v.725h-1.805V601.1h13.862v6.557Zm0-5.347H289.927v1.122H300.2Zm0,2.244H289.927v1.166H300.2Zm.33-14.324h-4.621v1.189h4.621Zm0,2.442h-4.621V593.9h4.621Z"/><path class="cls-1" d="M314.409,606.313c-2.025,0-4.533-3.653-4.533-9.682a38.842,38.842,0,0,1,.9-7.415l2.024.617c.287.087.463.131.463.351,0,.286-.309.309-.485.309a21.51,21.51,0,0,0-1.011,6.578c0,3.85,1.541,6.887,2.683,6.887,1.078,0,2.157-2.794,2.774-4.334a5.827,5.827,0,0,0,1.363,1.232C318.105,602.088,316.411,606.313,314.409,606.313Zm12.168-3.763a19.269,19.269,0,0,0-3.961-11.177l1.651-1.013a22.269,22.269,0,0,1,4.355,11.332C328.513,601.736,326.8,602.462,326.577,602.55Z"/><path class="cls-1" d="M344.642,592.67c-1.166.792-4.664,3.433-4.664,7.108,0,2.816,2.134,5.082,6.82,5.566a11.044,11.044,0,0,0-.836,2.069c-4.025-.815-7.92-3.015-7.92-7.614,0-2.882,1.694-5.963,6.006-8.537-.551.023-10.1,1.057-11.881,1.5l-.308-2.376c.418.022.7.044,1.121.044a125.806,125.806,0,0,0,17.339-1.936l.44,2.178A10.017,10.017,0,0,0,344.642,592.67Z"/><path class="cls-1" d="M360.612,607a18.875,18.875,0,0,0-4.466-4.247l1.232-1.276a28.472,28.472,0,0,1,4.775,3.916Z"/><path class="cls-1" d="M34.048,631.3c-2.816,7.592-6.314,11.113-12.893,14.17a5.641,5.641,0,0,0-1.429-1.517c3.146-1.3,9.373-3.851,12.386-13.18H17.392v-1.8H31.716a3.926,3.926,0,0,0,1.52-.2L34.644,630A6.879,6.879,0,0,0,34.048,631.3Zm1.014-2.2a1.969,1.969,0,1,1,1.98-1.98A1.968,1.968,0,0,1,35.062,629.1Zm0-3.1a1.133,1.133,0,1,0,1.142,1.122A1.141,1.141,0,0,0,35.062,626Z"/><path class="cls-1" d="M43.333,642.876v1.166h-1.98V629.058H56.8v14.984h-1.98v-1.166Zm11.485-1.782V630.84H43.333v10.254Z"/><path class="cls-1" d="M79.681,630.071c-2.42,6.732-4.686,11.4-13.135,15.4a5.652,5.652,0,0,0-1.432-1.517c6.536-2.729,9.991-6.183,12.631-14.413H63.025V627.76H77.349a3.536,3.536,0,0,0,1.541-.22l1.408,1.254A6.2,6.2,0,0,0,79.681,630.071Z"/><path class="cls-1" d="M97.544,631.3a31.782,31.782,0,0,1-4.512,4.093v10.1H91.294v-8.89a33.341,33.341,0,0,1-6.2,2.993,5.852,5.852,0,0,0-1.232-1.431,24.343,24.343,0,0,0,12.63-8.493l1.452,1.078a.5.5,0,0,1,.242.353C98.181,631.346,97.962,631.346,97.544,631.3Z"/><path class="cls-1" d="M102.419,637.067v-1.936h18.725v1.936Z"/><path class="cls-1" d="M130.446,628.53v5.413c0,3.631-.636,7.107-5.5,10.3a5.069,5.069,0,0,0-1.562-1.387c4.842-2.706,5.06-5.963,5.06-8.713v-6.447l1.938.132c.219.022.506.044.506.286C130.888,628.31,130.667,628.442,130.446,628.53Zm5.721,14.919a5.743,5.743,0,0,0-1.23.989l-1.409-.989c.022-.441.065-1.1.065-1.717V627.518l1.959.088c.242,0,.439.022.439.242s-.2.286-.439.4v13.18a23.278,23.278,0,0,0,7.437-6.909,8.224,8.224,0,0,0,1.057,1.672A30.672,30.672,0,0,1,136.167,643.449Z"/><path class="cls-1" d="M160.112,636.826c.045.549.11,1.452.11,2.574,0,.924-.043,1.562-.088,2.09-1.209-.022-1.561,0-1.914,0a21.136,21.136,0,0,0,.111-2.376c0-.7-.023-1.145-.045-1.475-4.246,2.069-4.554,3.345-4.554,4.159,0,.638,0,1.87,4.488,1.87a26.125,26.125,0,0,0,6.711-.879,9.045,9.045,0,0,0-.219,2.024,26.647,26.647,0,0,1-5.633.527c-1.783,0-7.086,0-7.086-3.5,0-2.333,2.532-4.268,6.073-5.919a2,2,0,0,0-2.245-1.738,5.421,5.421,0,0,0-3.959,2.156,25.651,25.651,0,0,0-2.334,3.124l-1.539-1.21a43.2,43.2,0,0,0,5.457-7.5c-2.4.111-2.773.111-4.466.088v-1.847a30.177,30.177,0,0,0,3.168.132c.439,0,1.3,0,2.177-.067a18.337,18.337,0,0,0,1.344-3.212l1.8.418c.176.044.484.11.484.374,0,.242-.351.308-.594.33-.263.594-.5,1.122-.9,1.914a27.752,27.752,0,0,0,5.787-1.21l.043,1.936c-2.6.528-5.5.881-6.754,1.013-.638,1.143-1.187,1.958-1.695,2.75a5.087,5.087,0,0,1,2.465-.638,3.389,3.389,0,0,1,3.476,2.376c.815-.352,4.4-1.826,5.106-2.178l.748,1.98A51.906,51.906,0,0,0,160.112,636.826Z"/><path class="cls-1" d="M175.564,646.2h-1.827V634.053a26.2,26.2,0,0,1-1.935,2.332,5.016,5.016,0,0,0-1.584-1.166,22.653,22.653,0,0,0,5.764-9.373l1.937.594c.176.044.285.11.285.286,0,.286-.33.286-.615.286a29.428,29.428,0,0,1-2.135,4.4c.528.219.727.33.727.484,0,.264-.352.33-.617.374Zm8.691-11.6h5.875v1.65h-5.875v3.1h6.4v1.716h-6.4V646.2h-1.869V631.281h-1.123a24.47,24.47,0,0,1-3.41,4.686,5.521,5.521,0,0,0-1.606-1.011,20.509,20.509,0,0,0,5.346-9.066l1.783.527c.242.067.44.155.44.331,0,.242-.264.286-.661.308-.55,1.5-.857,2.134-1.033,2.53h8.756v1.695h-6.623Z"/><path class="cls-1" d="M205.632,644a24.076,24.076,0,0,1-4.928.637,5.9,5.9,0,0,0-.683-1.782c1.65.088,9.484.33,9.484-5.324,0-.881-.264-3.763-4.094-3.763-3.035,0-8.074,1.958-8.931,2.4l-.9-2.113a20.2,20.2,0,0,0,2.948-.6c3.388-.857,4.972-1.275,6.931-1.275,4.555,0,5.787,3.191,5.787,5.192C211.243,640.478,209.13,643.14,205.632,644Z"/><path class="cls-1" d="M227.046,631.17c-1.166.792-4.666,3.433-4.666,7.108,0,2.816,2.135,5.082,6.822,5.566a11.113,11.113,0,0,0-.836,2.069c-4.027-.815-7.922-3.015-7.922-7.614,0-2.882,1.694-5.963,6.008-8.537-.55.023-10.1,1.057-11.883,1.5l-.308-2.376c.418.022.705.044,1.123.044a125.812,125.812,0,0,0,17.338-1.936l.441,2.178A10.015,10.015,0,0,0,227.046,631.17Z"/><path class="cls-1" d="M242.663,636.187a24.9,24.9,0,0,0-5.633-3.059l1.1-1.561a30.14,30.14,0,0,1,5.721,2.97A6.627,6.627,0,0,0,242.663,636.187Zm-2.64,9.065c-.024.22-.067.529-.352.529-.154,0-.266-.176-.353-.353l-.9-1.716a31.213,31.213,0,0,0,16.2-12.431,11.454,11.454,0,0,0,1.275,1.584A34.491,34.491,0,0,1,240.023,645.252Zm5.257-14.213A23.282,23.282,0,0,0,239.362,628l1.1-1.474a26.75,26.75,0,0,1,5.984,2.883A8.484,8.484,0,0,0,245.28,631.039Z"/><path class="cls-1" d="M260.562,644v-1.607h6.49v-8.845H262.1v-1.629h11.683v1.629h-5.039v8.845H275.5V644Z"/><path class="cls-1" d="M298.482,630.686a29.117,29.117,0,0,1-6.8,7.02,6.6,6.6,0,0,0-1.364-1.387c3.674-2.486,4.95-4.18,5.963-5.853H280.263v-1.8H296.7a3.765,3.765,0,0,0,1.209-.2l1.321,1.21A8.078,8.078,0,0,0,298.482,630.686Zm-8.3,2.4c-.133,3.456-.4,9.11-6.932,12.807a13.791,13.791,0,0,0-1.672-1.276c4.951-2.574,6.844-5.986,6.535-12.344l2.069.176c.22.021.439.11.439.242C290.626,632.909,290.384,633,290.187,633.084Z"/><path class="cls-1" d="M310.191,645.5c-4.532,0-4.664-4.511-4.664-8.053,0-1.563.287-8.361.287-9.748a8.674,8.674,0,0,0-.067-1.233l2.332.309c.33.044.528.088.528.286s-.307.352-.573.4a95.159,95.159,0,0,0-.548,10.1c0,3.741.263,6.007,2.837,6.007,4.555,0,7.9-5.016,8.647-6.6a7.418,7.418,0,0,0,1.453,1.627C316.528,644.834,312.019,645.5,310.191,645.5Z"/><path class="cls-1" d="M340.472,644.241a14.624,14.624,0,0,0-5.9-3.169c0,.242.022.572.022.814,0,1.277-.242,3.5-4.158,3.5-3.037,0-5-1.5-5-3.19,0-2.311,2.882-3.212,5.171-3.212a17.9,17.9,0,0,1,1.957.153c-.021-.7-.043-.924-.064-2.662-1.078.044-1.52.067-2.113.067-1.209,0-4.489,0-4.489-1.717,0-.77.506-1.43,1.563-2.355l1.5.529c-.682.55-1.057.836-1.057,1.232,0,.572,1.805.594,2.707.594.946.022,1.627,0,1.848-.022-.021-1.1-.043-2.728-.043-3.829-3.894.154-6.228.418-7.5.572V629.63c1.188-.088,6.426-.307,7.5-.374-.023-1.606-.023-2.156-.111-3.058l2.31.4c.176.022.352.132.352.286,0,.242-.307.308-.483.329-.044.485-.111,1.255-.111,2,1.078-.022,5.832-.11,6.8-.066L341.153,631c-1.056-.067-2.64-.176-6.8-.088-.022.748-.022,1.055-.022,3.784a31.412,31.412,0,0,0,6.27-.99v1.914a42.2,42.2,0,0,1-6.227.749c0,.594.067,2.574.088,3.08a19.054,19.054,0,0,1,7.283,3.19A17.8,17.8,0,0,0,340.472,644.241Zm-7.877-3.565a6.022,6.022,0,0,0-1.85-.22c-2.023,0-3.431.594-3.431,1.716,0,1.518,2.486,1.607,2.838,1.607,2.486,0,2.486-1.5,2.486-2.223C332.638,641.2,332.616,640.94,332.6,640.676Z"/><path class="cls-1" d="M361.982,630.752c-1.3,0-2.575.023-3.873.067,0,1.517-.045,2.838.021,3.718a7.771,7.771,0,0,1,.859,3.587,9.428,9.428,0,0,1-1.98,5.588,10.6,10.6,0,0,1-3.652,2.794c-.354-.351-1.19-1.011-1.651-1.364,2.508-.989,4.289-2.244,5.082-4.929a3.385,3.385,0,0,1-2.6,1.233c-1.938,0-3.082-1.672-3.082-4.071,0-2.508,1.474-4.224,3.5-4.224a3.008,3.008,0,0,1,1.626.44c-.021-.419-.043-2.047-.043-2.684-2.507.109-6.974.483-9.417.88l-.176-2.069c1.517.023,8.185-.395,9.549-.462a25.061,25.061,0,0,0-.307-3.19l2.178.22c.308.022.527.044.527.286,0,.154-.264.263-.4.33a20.968,20.968,0,0,0-.088,2.266c6.425-.286,7.152-.308,7.724-.352a15.722,15.722,0,0,0,.043,2C365.04,630.775,363.72,630.752,361.982,630.752Zm-7.284,3.961c-1.453,0-1.959,1.474-1.959,2.706,0,.506,0,2.487,1.805,2.487,1.275,0,2.223-1.21,2.223-2.817A2.184,2.184,0,0,0,354.7,634.713Z"/><path class="cls-1" d="M373.88,645.539a2.828,2.828,0,1,1,2.838-2.817A2.828,2.828,0,0,1,373.88,645.539Zm0-4.6a1.772,1.772,0,1,0,1.783,1.782A1.774,1.774,0,0,0,373.88,640.94Z"/><polygon class="cls-4" points="161.018 454.651 161.018 525.164 232.485 525.164 232.485 434.675 180.995 434.675 161.018 454.651"/><polygon class="cls-5" points="180.995 434.675 161.018 454.651 180.995 454.651 180.995 434.675"/><path class="cls-6" d="M210.71,492.6a1.5,1.5,0,0,1-1.436-1.933l2.778-9.218a1.5,1.5,0,0,1,2.476-.649l6.637,6.374a1.5,1.5,0,0,1-.6,2.518l-9.416,2.844A1.506,1.506,0,0,1,210.71,492.6Z"/><path class="cls-1" d="M213.488,481.878l6.638,6.374L210.71,491.1l2.778-9.218m0-3a3,3,0,0,0-2.872,2.134l-2.778,9.218a3,3,0,0,0,3.739,3.738l9.416-2.843a3,3,0,0,0,1.211-5.036l-6.637-6.375a3,3,0,0,0-2.079-.836Z"/><path class="cls-7" d="M267.156,446.606a2.045,2.045,0,0,0,0-2.893l-9.071-9.072a2.045,2.045,0,0,0-2.893,0l-38.3,36.782a2.04,2.04,0,0,0-.51.851l-2.9,9.6,6.638,6.374,9.887-2.986Z"/><line class="cls-2" x1="17.752" y1="706.6" x2="17.752" y2="706.6"/><line class="cls-3" x1="29.752" y1="706.6" x2="371.752" y2="706.6"/><line class="cls-2" x1="377.752" y1="706.6" x2="377.752" y2="706.6"/><path class="cls-1" d="M29.114,1102.359v-1.54H30.7l-.527-11.485,1.387.242a8.339,8.339,0,0,0,2.9-.836l.748,1.1a.854.854,0,0,1,.2.462c0,.133-.088.2-.22.2a.678.678,0,0,1-.418-.2,14.639,14.639,0,0,1-2.926.66l.088,2.156h2.728v1.452H32l.11,2.289h2.552v1.409H32.152l.109,2.551h3.168v-11.9h7.635v11.9h3.455l.066-2.551H43.857v-1.409h2.771l.066-2.289H43.857v-1.452h2.882l.067-2.442H43.857v-1.43h4.621l-.375,11.573h1.386v1.54Zm8.825,1.849a1.768,1.768,0,0,1-.442-.065,37.966,37.966,0,0,1-6.248,4.6,5.24,5.24,0,0,0-1.5-1.32,24.2,24.2,0,0,0,6.754-4.775l1.453.924c.2.132.309.2.309.352C38.269,1104.208,37.96,1104.208,37.939,1104.208Zm3.74-13.84H36.816v10.451h4.863Zm-4.313,2.685V1091.8h3.719v1.254Zm.219,6.226v-4.753h3.322v4.753Zm2.332-3.564H38.554v2.354h1.363Zm7.658,13.026a26.526,26.526,0,0,1-6.777-4.973l1.3-1.21a22.106,22.106,0,0,0,6.711,4.731A8.006,8.006,0,0,0,47.575,1108.741Z"/><path class="cls-1" d="M59.714,1090.7v13.422H58.087v-1.1H55.644v2.442H54.017V1090.7Zm-4.07,1.651v9.043h2.443v-9.043Zm11.177,16.3H65.128v-8.228a23.329,23.329,0,0,1-6.711,7.194,4.6,4.6,0,0,0-1.453-1.231,21.544,21.544,0,0,0,7.459-7.5H60v-1.651h5.127v-3.674H60.749v-1.607h4.379v-3.608l2,.132c.242.022.352.154.352.286,0,.242-.243.33-.661.462v2.728h5.237v1.607H66.821v3.674h6.493v1.651H67.482a22.518,22.518,0,0,0,6.58,6.952,4.646,4.646,0,0,0-1.344,1.364,23.782,23.782,0,0,1-5.9-6.887Z"/><path class="cls-1" d="M89.683,1099.3c.043.55.109,1.452.109,2.574,0,.924-.045,1.562-.088,2.09-1.211-.022-1.562,0-1.914,0a20.929,20.929,0,0,0,.11-2.376c0-.7-.022-1.145-.043-1.475-4.248,2.069-4.555,3.345-4.555,4.159,0,.638,0,1.871,4.488,1.871a26.126,26.126,0,0,0,6.711-.88,9.036,9.036,0,0,0-.221,2.024,26.625,26.625,0,0,1-5.632.527c-1.782,0-7.084,0-7.084-3.5,0-2.333,2.529-4.268,6.072-5.919a2,2,0,0,0-2.244-1.738,5.424,5.424,0,0,0-3.961,2.156,25.688,25.688,0,0,0-2.332,3.124l-1.541-1.21a43.109,43.109,0,0,0,5.457-7.5c-2.4.11-2.772.11-4.467.087v-1.847a30.27,30.27,0,0,0,3.17.132c.439,0,1.3,0,2.178-.067a18.521,18.521,0,0,0,1.341-3.212l1.805.418c.176.044.485.11.485.374,0,.242-.354.308-.6.33-.264.594-.506,1.122-.9,1.914a27.679,27.679,0,0,0,5.786-1.21l.045,1.936c-2.6.528-5.5.881-6.756,1.013-.637,1.143-1.188,1.958-1.694,2.75a5.078,5.078,0,0,1,2.465-.638,3.394,3.394,0,0,1,3.477,2.376c.814-.352,4.4-1.826,5.1-2.178l.748,1.98A51.865,51.865,0,0,0,89.683,1099.3Z"/><path class="cls-1" d="M104.359,1094.285v4.334a18.2,18.2,0,0,0,2.377-1.1,4.078,4.078,0,0,0-.131,1.759c-1.211.55-1.762.792-2.246.991v5.588c0,2.706-1.166,2.729-3.784,2.817a4.3,4.3,0,0,0-.572-1.981,8.256,8.256,0,0,0,1.408.155c1.012,0,1.145-.287,1.145-1.3V1101c-.924.374-1.8.7-2.707,1.012-.11.374-.155.506-.33.506s-.264-.176-.309-.4l-.33-1.761a24.936,24.936,0,0,0,3.676-1.078v-4.994H99.234v-1.606h3.322v-4.2l1.847.131c.2.023.506.045.506.265,0,.2-.131.242-.55.4v3.411H106.8v1.606Zm11,2.9,1.3.11c.176.022.352.066.352.264s-.176.287-.506.4v1.717h2.729v1.628h-2.729v4.532c0,2.4-1.1,2.728-4.092,2.8a5.219,5.219,0,0,0-.66-1.937,10.3,10.3,0,0,0,1.606.132c1.035,0,1.341-.153,1.341-1.517v-4h-7.744v-1.628H114.7v-2.487h-8.119v-1.628h5.369v-2.707h-4.291v-1.562h4.291v-2.86l1.848.131c.375.023.529.111.529.287s-.154.242-.55.4v2.046h4.753v1.562h-4.753v2.707h5.7v1.628Zm-5.413,9.154a13.525,13.525,0,0,0-2.31-3.5l1.453-1.012a20.641,20.641,0,0,1,2.42,3.41A8.991,8.991,0,0,0,109.948,1106.343Z"/><path class="cls-1" d="M134.655,1106.475a24.068,24.068,0,0,1-4.929.637,5.9,5.9,0,0,0-.682-1.782c1.65.088,9.483.33,9.483-5.324,0-.881-.264-3.763-4.092-3.763-3.037,0-8.076,1.958-8.934,2.4l-.9-2.113a20.334,20.334,0,0,0,2.949-.594c3.389-.858,4.973-1.276,6.932-1.276,4.552,0,5.785,3.191,5.785,5.193C140.265,1102.954,138.153,1105.616,134.655,1106.475Z"/><path class="cls-1" d="M152.468,1094.659a48.754,48.754,0,0,1-5.92,13.531c-.527-.33-1.385-.725-1.869-.967a37.511,37.511,0,0,0,5.764-12.3,46.325,46.325,0,0,1-4.862.242l-.154-2c.506.023,1.033.067,1.826.067,1.451,0,2.793-.088,3.631-.155a29.335,29.335,0,0,0,.66-4.511l2.133.551c.33.088.441.2.441.308,0,.242-.33.308-.441.308-.131.484-.615,2.663-.725,3.1a18.307,18.307,0,0,0,4.774-1.21l.351,1.87A35.26,35.26,0,0,1,152.468,1094.659Zm6.578,13.07c-1.387,0-6.184,0-6.184-3.3a5.19,5.19,0,0,1,1.211-3.058l1.629.7a3.754,3.754,0,0,0-1.078,2.222c0,1.408,2.244,1.673,4.379,1.673a16.27,16.27,0,0,0,4.686-.7c-.022.263-.043.527-.043.923a4.542,4.542,0,0,0,.109,1.123A26.458,26.458,0,0,1,159.046,1107.729Zm4.027-9.264a17.836,17.836,0,0,0-3.279-.285,36.113,36.113,0,0,0-4.84.374v-1.783a33.589,33.589,0,0,1,5.082-.374,20.007,20.007,0,0,1,3.235.22A10.218,10.218,0,0,0,163.073,1098.465Z"/><path class="cls-1" d="M171.716,1092.965v6.4c0,2.311-.131,6.2-2.023,9.4a4.558,4.558,0,0,0-1.739-.726c1.629-2.6,1.893-5,1.893-8.912v-7.833h7.81V1088.3l1.936.132c.266.022.506.044.506.286,0,.264-.264.352-.549.44v2.134h8.779v1.673Zm3.852,7.261a23.319,23.319,0,0,1-1.76,6.711,6.1,6.1,0,0,0-1.586-.727,17.7,17.7,0,0,0,1.695-7.019l1.848.352c.2.045.375.089.375.286C176.14,1100.115,175.786,1100.182,175.568,1100.226Zm5.984,8.031h-1.76c-2.773,0-2.949-.946-2.949-2.729v-8.382l1.717.131c.131,0,.527.044.527.286,0,.176-.154.243-.418.331v7.436c0,1.21.221,1.21,2.4,1.21,1.32,0,1.759,0,1.98-2.948a4.151,4.151,0,0,0,1.76.682C184.39,1107.948,183.4,1108.257,181.552,1108.257Zm.945-9.571a20.506,20.506,0,0,0-3.849-4l1.3-1.1a23.718,23.718,0,0,1,3.916,3.916A4.83,4.83,0,0,0,182.5,1098.686Zm4.6,8.449a29.465,29.465,0,0,0-3.235-7.02l1.563-.769a32.1,32.1,0,0,1,3.41,6.93A6.334,6.334,0,0,0,187.1,1107.135Z"/><path class="cls-1" d="M196.624,1104.12v-.9a14.525,14.525,0,0,1-2.861,1.54,5.844,5.844,0,0,0-1.342-1.3,13.841,13.841,0,0,0,4.773-2.486h-4.576v-1.386h5.963a7.368,7.368,0,0,0,.77-1.145h-4.135v-5.919h14.918v5.919h-8.273c-.024.286-.288.33-.815.4-.264.395-.375.55-.527.748h12.3v1.386h-4.6a12.666,12.666,0,0,0,4.885,2.288,4.18,4.18,0,0,0-1.143,1.452,18.55,18.55,0,0,1-3.455-1.782c-.264,4.928-.66,5.743-4.092,5.743-.484,0-.771-.023-1.1-.044a3.415,3.415,0,0,0-.573-1.761,13.038,13.038,0,0,0,2.047.154c1.321,0,1.7-.11,1.871-2.9h-4.336c-1.869,3.477-6,4.291-7.589,4.621a4.6,4.6,0,0,0-.86-1.606c1.608-.176,5.039-.551,6.647-3.015Zm2.133-15.754,1.826.132c.176.022.529.044.529.286s-.308.352-.593.44v.7h4.355v-1.518l1.914.11c.112,0,.418.022.418.264s-.306.308-.572.374v.77h6.117v1.408h-6.117v.748h-1.76v-.748h-4.355v.748h-1.762v-.748h-6.094v-1.408h6.094Zm9.682,6.49v-1.122H196.931v1.122ZM196.931,1096v1.232h11.508V1096Zm2.4,4.973a18.681,18.681,0,0,1-2.111,1.826h3.937a7.913,7.913,0,0,0,.375-1.826Zm4.094,0c.2.044.439.131.439.307,0,.265-.462.33-.7.375-.064.285-.13.572-.306,1.144h5.433a16.27,16.27,0,0,1-2.265-1.826Z"/><path class="cls-1" d="M223.81,1107.971c-4.533,0-4.664-4.511-4.664-8.053,0-1.563.285-8.361.285-9.748a8.357,8.357,0,0,0-.067-1.232l2.332.308c.331.044.53.088.53.286s-.309.352-.573.4a95.245,95.245,0,0,0-.55,10.1c0,3.741.263,6.007,2.84,6.007,4.554,0,7.9-5.016,8.646-6.6a7.464,7.464,0,0,0,1.451,1.628C230.146,1107.311,225.636,1107.971,223.81,1107.971Z"/><path class="cls-1" d="M248.7,1093.646c-1.166.792-4.664,3.433-4.664,7.108,0,2.816,2.135,5.082,6.821,5.566a10.977,10.977,0,0,0-.836,2.069c-4.026-.815-7.92-3.015-7.92-7.614,0-2.881,1.693-5.963,6.006-8.537-.551.023-10.1,1.057-11.881,1.5l-.309-2.376c.418.022.7.044,1.121.044a125.816,125.816,0,0,0,17.34-1.936l.439,2.179A10.014,10.014,0,0,0,248.7,1093.646Z"/><path class="cls-1" d="M269.722,1108.961c-1.563-2.288-5.567-5.655-9.088-8.01-2.42-1.605-2.551-1.693-2.551-2.508,0-.726.307-.967,2.287-2.486a52.537,52.537,0,0,0,8.252-7.789l1.76,1.232c.221.154.352.242.352.418,0,.11-.11.22-.307.22a3.456,3.456,0,0,1-.375-.066c-1.451,1.408-5.566,4.907-8.582,7.283-.33.242-.988.792-.988,1.144,0,.374.13.462,1.318,1.233a42.731,42.731,0,0,1,9.484,7.679C270.845,1107.729,270.228,1108.433,269.722,1108.961Z"/><path class="cls-1" d="M292.65,1107.112c-.461,0-2.926-.175-2.926-4.158,0-.572.2-2.112.351-3.631.176-1.54.33-3.058.33-3.564,0-.4-.021-1.452-1.144-1.452-1.848,0-4.885,3.058-6.2,4.621a80.1,80.1,0,0,0,.263,9.329l-2.134.088c.088-1.365.088-3.1.088-3.7,0-1.034,0-1.254.021-3.3-1.693,2.442-2.42,3.476-3.234,4.818l-1.475-1.5a62.429,62.429,0,0,0,4.8-7.129c0-.242.023-1.3.023-1.518a24.3,24.3,0,0,1-4.16,1.012l-.461-2a17.68,17.68,0,0,0,4.664-.858c0-.859.045-3.587.045-4.555,0-.374-.023-.66-.045-.968l1.938.242c.24.022.527.11.527.352,0,.264-.308.308-.439.33-.045.594-.155,1.695-.242,3.939a8.6,8.6,0,0,0,.812-.462l.838.946a21.091,21.091,0,0,0-1.035,1.98c.857-.836,3.521-3.477,5.9-3.477,2.532,0,2.532,2.531,2.532,3.1,0,.441-.045.837-.463,4.358a30.087,30.087,0,0,0-.243,3.124c0,1.034.221,2.09,1.321,2.09.748,0,1.871-.594,2.992-2.332.133.286.684,1.584.814,1.826A6.045,6.045,0,0,1,292.65,1107.112Z"/><path class="cls-1" d="M307.952,1094.659a48.741,48.741,0,0,1-5.918,13.531c-.529-.33-1.386-.725-1.871-.967a37.495,37.495,0,0,0,5.766-12.3,46.345,46.345,0,0,1-4.863.242l-.155-2c.506.023,1.035.067,1.826.067,1.454,0,2.795-.088,3.631-.155a28.719,28.719,0,0,0,.66-4.511l2.135.551c.33.088.44.2.44.308,0,.242-.33.308-.44.308-.133.484-.617,2.663-.726,3.1a18.338,18.338,0,0,0,4.775-1.21l.352,1.87A35.259,35.259,0,0,1,307.952,1094.659Zm6.58,13.07c-1.386,0-6.183,0-6.183-3.3a5.19,5.19,0,0,1,1.211-3.058l1.627.7a3.747,3.747,0,0,0-1.078,2.222c0,1.408,2.244,1.673,4.378,1.673a16.289,16.289,0,0,0,4.688-.7c-.023.263-.045.527-.045.923a4.642,4.642,0,0,0,.109,1.123A26.453,26.453,0,0,1,314.532,1107.729Zm4.026-9.264a17.8,17.8,0,0,0-3.278-.285,36.131,36.131,0,0,0-4.841.374v-1.783a33.612,33.612,0,0,1,5.084-.374,20,20,0,0,1,3.234.22A10.334,10.334,0,0,0,318.558,1098.465Z"/><path class="cls-1" d="M342.691,1108.564a17.714,17.714,0,0,1-5.457-4.268,14.1,14.1,0,0,1-3.213-5.984,13.806,13.806,0,0,1-3.344,6.116,17.38,17.38,0,0,1-5.457,4.115,6.839,6.839,0,0,0-1.475-1.606c6.139-2.464,8.01-7,8.559-9.2.66-2.662.66-4.335.66-9.263l1.916.154c.307.022.549.132.549.286,0,.2-.131.242-.549.374a32.685,32.685,0,0,0,.506,7.789c.748,3.322,3.234,7.349,8.668,9.814A5.506,5.506,0,0,0,342.691,1108.564Z"/><path class="cls-1" d="M355.407,1097.894c-1.166.571-5.039,2.442-5.039,5.038,0,2.9,5.039,2.9,6.514,2.9a25.932,25.932,0,0,0,7.348-1.056,7.247,7.247,0,0,0-.155,2.2,41.565,41.565,0,0,1-7.062.661c-3.74,0-5.346-.594-6.381-1.122a4.059,4.059,0,0,1-2.266-3.565c0-2.816,2.508-4.577,4.928-5.919-1.187-1.254-1.43-2.772-1.672-5.369a9.023,9.023,0,0,0-.439-2.486l2.529-.528c-.064.9-.109,1.5-.109,2.09,0,2.069.22,4.181,1.254,5.479.99-.484,2.355-1.1,3.828-1.651,1.607-.615,4.424-1.716,4.8-1.87l.836,2.156A37.3,37.3,0,0,0,355.407,1097.894Z"/><path class="cls-1" d="M15.245,1132.982c-.133-2.463-1.429-3.454-3.785-3.454-.439,0-3.7,0-3.7,2.706,0,1.805,1.211,2.267,4.644,3.543,3.52,1.321,5.522,2.046,5.522,4.994,0,2.2-1.584,5.15-6.16,5.15-3.125,0-6.623-1.452-6.733-5.7H7.345c.023,2.486,1.717,3.784,4.269,3.784,2.442,0,4.116-1.386,4.116-3.036,0-1.8-1.453-2.355-4.225-3.323-3.807-1.341-5.941-2.112-5.941-5.148,0-2.971,2.464-4.885,5.875-4.885,2.859,0,5.632,1.122,6.05,5.368Z"/><path class="cls-1" d="M25.093,1128.1l9.9,14.082V1128.1h2.178v17.339H34.995l-9.9-14.083v14.083H22.937V1128.1Z"/><path class="cls-1" d="M52.368,1132.982c-.132-2.463-1.429-3.454-3.785-3.454-.439,0-3.7,0-3.7,2.706,0,1.805,1.211,2.267,4.644,3.543,3.52,1.321,5.522,2.046,5.522,4.994,0,2.2-1.584,5.15-6.16,5.15-3.125,0-6.623-1.452-6.733-5.7h2.309c.023,2.486,1.717,3.784,4.269,3.784,2.442,0,4.116-1.386,4.116-3.036,0-1.8-1.453-2.355-4.225-3.323-3.807-1.341-5.941-2.112-5.941-5.148,0-2.971,2.465-4.885,5.875-4.885,2.859,0,5.632,1.122,6.05,5.368Z"/><path class="cls-1" d="M72.038,1132.146c-1.166.792-4.664,3.433-4.664,7.108,0,2.816,2.135,5.082,6.82,5.566a11.04,11.04,0,0,0-.835,2.069c-4.026-.815-7.92-3.015-7.92-7.614,0-2.881,1.693-5.963,6.005-8.537-.55.023-10.1,1.057-11.88,1.5l-.309-2.376c.418.022.7.044,1.121.044a125.816,125.816,0,0,0,17.34-1.936l.439,2.179A10.014,10.014,0,0,0,72.038,1132.146Zm3.346,5.326a17.944,17.944,0,0,0-1.981-2.465l1.055-.814a18.806,18.806,0,0,1,2,2.4A4.74,4.74,0,0,0,75.384,1137.472Zm2.178-1.607a13.831,13.831,0,0,0-1.981-2.509l1.057-.748a17.663,17.663,0,0,1,2.045,2.4A3.827,3.827,0,0,0,77.562,1135.865Z"/><path class="cls-1" d="M87.425,1135.689v6.007c0,3.256,2.771,3.256,6.16,3.256a79.7,79.7,0,0,0,9.483-.307,4,4,0,0,0-.616,1.892H92.968c-4.443,0-5.236-.726-6.381-2.266-.879.769-1.5,1.253-2.639,2.089.022.243.065.639-.242.639-.111,0-.242-.154-.33-.309l-.924-1.54a9.619,9.619,0,0,0,1.539-.9c1.387-.99,1.541-1.1,1.651-1.187v-5.7H82.737v-1.672Zm-3.236-8.3a44.041,44.041,0,0,1,3.763,3.5,7.219,7.219,0,0,0-1.32,1.3,31.671,31.671,0,0,0-3.674-3.586Zm10.365-.44,1.76.109c.154,0,.527.067.527.287,0,.132-.131.242-.549.374v1.056h6.27v1.386h-6.27v1.452h4.774v7.438H96.292v1.584h6.4v1.43h-6.4v2.178H94.554v-2.178H88.568v-1.43h5.986v-1.584H89.933v-7.438h4.621v-1.452h-5.9v-1.386h5.9Zm0,5.963H91.626v1.694h2.928Zm0,2.97H91.626v1.892h2.928Zm1.738-1.276h3.08v-1.694h-3.08Zm0,3.168h3.08v-1.892h-3.08Z"/><path class="cls-1" d="M120.88,1127.24c.2.044.441.11.441.33,0,.286-.441.33-.66.352-.242.616-.353.88-.508,1.188h4.666l.879.924a16.861,16.861,0,0,1-3.277,4.929,15,15,0,0,0,4.951,2.992,6.378,6.378,0,0,0-.9,1.563c-.242-.111-.4-.176-.881-.418v7.987h-1.65v-1.034h-5.282v1.034H117.03v-7.943a3.97,3.97,0,0,0-.4.175,5.793,5.793,0,0,0-1.275-1.341,8.167,8.167,0,0,0-.948.395c-.088-.527-.131-.813-.242-1.363-.66.109-1.408.219-1.98.285v9.857h-1.627v-9.636c-.748.088-1.475.153-2.752.242-.043.132-.176.483-.44.483-.176,0-.22-.2-.263-.483l-.2-1.541c.946-.022,1.342-.022,1.869-.044.706-.836,1.036-1.254,1.5-1.87a25.593,25.593,0,0,0-3.52-3.191l1.055-1.232a7.878,7.878,0,0,1,1.256,1.013,27.774,27.774,0,0,0,2.375-4.2l1.431.859c.131.088.307.176.307.352,0,.286-.33.308-.725.264a27.316,27.316,0,0,1-2.355,3.675c.748.7.969.946,1.166,1.166a42.153,42.153,0,0,0,2.486-3.873l1.365.814c.155.088.33.2.33.374,0,.2-.175.286-.4.286a1.279,1.279,0,0,1-.33-.044,65.032,65.032,0,0,1-4.115,5.523c.836-.065,2.531-.2,3.234-.286-.2-.7-.352-1.1-.527-1.584l1.408-.55a28.262,28.262,0,0,1,1.3,4.026,18.6,18.6,0,0,0,4.224-2.794,12.325,12.325,0,0,1-1.8-2.861,25.775,25.775,0,0,1-1.7,2.311,4.969,4.969,0,0,0-1.627-.836,16.89,16.89,0,0,0,4.18-6.667Zm-11.266,11.86c.221.044.442.11.442.33,0,.2-.287.263-.463.286a22.083,22.083,0,0,1-.969,4.885,8.721,8.721,0,0,0-1.562-.441,18.329,18.329,0,0,0,1.056-5.368Zm5.018-.308a28.648,28.648,0,0,0,.639,4.269,6.472,6.472,0,0,0-1.784.418c-.175-1.387-.351-3.082-.4-4.357Zm10.518.088a21.427,21.427,0,0,1-3.852-2.817,23.722,23.722,0,0,1-3.807,2.817Zm-1.211,5.7v-4.2h-5.282v4.2Zm-4.51-13.972a9.989,9.989,0,0,0,1.914,3.235,9.816,9.816,0,0,0,2.266-3.235Z"/><path class="cls-1" d="M142.064,1145.04a3.828,3.828,0,0,1-3.057,1.145,7.7,7.7,0,0,1-2-.243,11.247,11.247,0,0,0-.2-2.089,6.833,6.833,0,0,0,2.377.483c1.1,0,1.715-.571,2.287-1.892a13.954,13.954,0,0,0,1.014-5.06c0-2.179-.573-3.807-2.95-3.807a7.5,7.5,0,0,0-1.011.088,33.653,33.653,0,0,1-5.9,12.409,9.573,9.573,0,0,0-1.828-.945,28.723,28.723,0,0,0,5.723-11.09,27.454,27.454,0,0,0-4.776,1.518l-.66-2.024c.945-.154,5.039-1.232,5.9-1.408a39.79,39.79,0,0,0,.705-5.018l2.132.639c.243.066.4.132.4.308s-.176.352-.527.4c-.112.529-.639,2.948-.748,3.433,4.818-.286,5.39,2.97,5.39,5.457C144.331,1138.924,143.935,1142.928,142.064,1145.04Zm4.224-4.6a10.793,10.793,0,0,0-.988-1.693c1.561-.221,2.6-.6,2.6-1.629,0-1.473-1.959-4.114-4.116-5.787l1.52-.968c3.146,2.685,4.576,5.391,4.576,7.129C149.876,1139.254,148.357,1139.914,146.288,1140.441Zm1.541-9.306a16.926,16.926,0,0,0-2.047-2.333l1.057-.748a17.134,17.134,0,0,1,2.047,2.245A9.081,9.081,0,0,0,147.829,1131.135Zm1.871-1.233a10.5,10.5,0,0,0-2.025-2.486l1.1-.7a14.813,14.813,0,0,1,2.091,2.31A10.173,10.173,0,0,0,149.7,1129.9Z"/><path class="cls-1" d="M167.79,1132.146c-1.166.792-4.666,3.433-4.666,7.108,0,2.816,2.135,5.082,6.822,5.566a11.04,11.04,0,0,0-.835,2.069c-4.028-.815-7.922-3.015-7.922-7.614,0-2.881,1.693-5.963,6.007-8.537-.55.023-10.1,1.057-11.882,1.5l-.309-2.376c.418.022.705.044,1.123.044a125.8,125.8,0,0,0,17.338-1.936l.441,2.179A10.011,10.011,0,0,0,167.79,1132.146Zm3.344,5.326a17.788,17.788,0,0,0-1.981-2.465l1.057-.814a18.681,18.681,0,0,1,2,2.4A4.788,4.788,0,0,0,171.134,1137.472Zm2.178-1.607a13.831,13.831,0,0,0-1.981-2.509l1.057-.748a17.678,17.678,0,0,1,2.047,2.4A3.827,3.827,0,0,0,173.312,1135.865Z"/><path class="cls-1" d="M190.954,1135.6a22.321,22.321,0,0,0,4.115,5.346l-1.144,1.21a12.533,12.533,0,0,0-7.041-2.266c-1.869,0-3.873.682-3.873,2.464,0,1.76,2,2.706,5.017,2.706a18.165,18.165,0,0,0,5.524-.858,8.073,8.073,0,0,0-.133,1.893,20.691,20.691,0,0,1-5.391.66c-5.7,0-6.931-2.8-6.931-4.423,0-2.223,2.092-3.961,5.633-3.961a13.3,13.3,0,0,1,4.4.793,18.8,18.8,0,0,1-1.957-3.081,40.468,40.468,0,0,1-9.373.946l-.242-1.8c.394.022.9.044,1.65.044a32.853,32.853,0,0,0,7.172-.792c-.549-1.188-.814-1.892-1.012-2.376a51.323,51.323,0,0,1-6.271.748l-.4-1.8a32.071,32.071,0,0,0,6.073-.572c-.331-1.013-.594-1.959-.86-2.993l2.047-.4a21.737,21.737,0,0,0,.66,2.971,16.553,16.553,0,0,0,4.555-1.849c.176.374.594,1.342.726,1.606a20.006,20.006,0,0,1-4.751,1.848,25.094,25.094,0,0,0,1.011,2.355,17.811,17.811,0,0,0,5.434-2.4c.287.463.66,1.034.99,1.541A22.561,22.561,0,0,1,190.954,1135.6Z"/><path class="cls-1" d="M210.708,1146.537c-2.553,0-4.861-1.144-4.861-3.433,0-1.584,1.254-2.948,3.431-2.948a4.721,4.721,0,0,1,3.786,1.8,4.475,4.475,0,0,1,.814,2.156,4.257,4.257,0,0,0,2.926-3.96c0-2.442-1.826-4.071-4.731-4.071-3.828,0-6.138,2.156-9.66,5.831l-1.517-1.475a129.718,129.718,0,0,0,10.914-10.451,62.836,62.836,0,0,1-8.274.968l-.33-1.958c2.266.11,8.3-.242,11.242-1.254l1.036,1.3c-.506.418-6.184,5.655-6.668,6.183a9.464,9.464,0,0,1,3.718-.77c3.235,0,6.162,1.937,6.162,5.522C218.7,1144.6,214.009,1146.537,210.708,1146.537Zm.705-3.785a3.138,3.138,0,0,0-2.267-1.012,1.4,1.4,0,0,0-1.584,1.364c0,1.518,1.914,1.915,2.9,1.915a8.726,8.726,0,0,0,1.738-.22A3.131,3.131,0,0,0,211.413,1142.752Z"/><path class="cls-1" d="M240.6,1145.129a17.531,17.531,0,0,0-6.578-3.873c.021.286.021.506.021.814,0,2.222-.549,4.137-4.355,4.137-4.225,0-5.172-2.531-5.172-3.653,0-1.474,1.607-3.674,5.7-3.674a13.193,13.193,0,0,1,1.65.132c-.22-3.191-.22-3.7-.242-8.384a15.149,15.149,0,0,0-.33-3.454l2.465.418c.2.044.439.088.439.33,0,.22-.132.264-.484.374-.088,1.122-.131,1.98-.154,3.52a24.853,24.853,0,0,0,7.57-1.055,10.694,10.694,0,0,0-.088,2.068,36.337,36.337,0,0,1-7.5.836,37.3,37.3,0,0,0,.33,5.721,21.6,21.6,0,0,1,8.032,4.049C241.548,1143.853,241.152,1144.358,240.6,1145.129Zm-8.559-4.358a9.379,9.379,0,0,0-1.98-.219c-1.475,0-3.762.528-3.762,2.024,0,1.122,1.121,1.958,3.365,1.958,1.145,0,2.465-.307,2.465-2.178C232.13,1141.872,232.087,1141.5,232.042,1140.771Z"/><path class="cls-1" d="M251.372,1147.219a7.276,7.276,0,0,0-1.142-1.672c7.392-1.1,9.679-4.885,9.679-7.7,0-2.509-1.56-4.072-3.652-4.072-2.641,0-6.6,1.783-9.2,3.654l-.991-2.443a10.992,10.992,0,0,0,3.192-1.078,18,18,0,0,1,7.041-1.871c3.916,0,5.566,2.927,5.566,5.655C261.868,1142.488,257.644,1146.118,251.372,1147.219Zm7-17.25a30.278,30.278,0,0,1-8.361-1.123l.309-1.892a22.351,22.351,0,0,0,6.929,1.056c.617,0,1.014-.022,1.387-.044A15.746,15.746,0,0,0,258.37,1129.969Z"/><path class="cls-1" d="M271.142,1145.7l-1.739.529a21.611,21.611,0,0,1-1.3-7.965,47.735,47.735,0,0,1,1.386-10.65l1.981.748c.351.132.463.22.463.33,0,.243-.264.264-.506.308a31.246,31.246,0,0,0-1.5,9.659,19.014,19.014,0,0,0,.263,3.389,27.482,27.482,0,0,1,1.409-3.542,3.437,3.437,0,0,0,1.078,1.122A14.4,14.4,0,0,0,271.142,1145.7Zm14.742-1.517a35.752,35.752,0,0,1-5.106.33c-2.726,0-6.181-.265-6.181-3.1a7.467,7.467,0,0,1,.9-3.278l1.715.351a5.079,5.079,0,0,0-.836,2.487c0,1.408,1.608,1.76,4.27,1.76a21.585,21.585,0,0,0,5.369-.616A12.673,12.673,0,0,0,285.884,1144.183Zm-8.25-12.058c-1.014,0-1.674-.044-2.2-.066v-1.849a18.149,18.149,0,0,0,2.222.11,29.41,29.41,0,0,0,6.954-.7c.021.176.175,1.321.242,1.893A40.305,40.305,0,0,1,277.634,1132.125Z"/><path class="cls-1" d="M297.819,1132.543a45.4,45.4,0,0,1-5.126,10.781c-.573-.286-.881-.418-1.784-.792a39.889,39.889,0,0,0,4.864-9.747,34.236,34.236,0,0,1-4.159.153l-.242-1.936a17.911,17.911,0,0,0,2.289.133,20.925,20.925,0,0,0,2.662-.155,37.2,37.2,0,0,0,.924-3.982l2,.55c.242.066.352.132.352.286,0,.242-.285.264-.461.286-.354,1.189-.463,1.563-.772,2.574a20.426,20.426,0,0,0,3.631-.946,9.423,9.423,0,0,0,.045,1.914A31.813,31.813,0,0,1,297.819,1132.543Zm10.254,13.224a20.109,20.109,0,0,0-3.718-2.6c.021,3.367-3.235,3.367-3.983,3.367-2.465,0-4.445-1.167-4.445-3.213,0-1.5,1.123-3.036,3.961-3.036a8.462,8.462,0,0,1,2.441.374,15.5,15.5,0,0,1-.263-2.421,4.139,4.139,0,0,1,1.541-3.058l1.539,1.034a2.8,2.8,0,0,0-1.188,2.377,12.753,12.753,0,0,0,.33,2.662,23.848,23.848,0,0,1,4.928,3.058C308.8,1144.8,308.513,1145.194,308.073,1145.767Zm-8.142-4.005c-1.166,0-2.266.484-2.266,1.562,0,1.672,2.465,1.672,2.574,1.672,2.465,0,2.377-1.584,2.332-2.6A5.907,5.907,0,0,0,299.931,1141.762Zm8.736-6.227a14.1,14.1,0,0,0-5.678-2.86l1.057-1.563a15.468,15.468,0,0,1,5.678,2.795C309.37,1134.435,308.952,1135.051,308.667,1135.535Z"/><path class="cls-1" d="M318.919,1141.146l-1.693.2a20.822,20.822,0,0,1-1.321-7.349,27.938,27.938,0,0,1,.682-5.721c.088-.484.109-.572.154-.858l1.8.44c.309.066.551.132.551.374,0,.2-.176.264-.461.352a20.338,20.338,0,0,0-.881,5.831,13.765,13.765,0,0,0,.33,3.256,18.31,18.31,0,0,1,1.848-3.784,5.806,5.806,0,0,0,1.342,1.056A13.538,13.538,0,0,0,318.919,1141.146Zm10.143-13.246c.023.638.22,3.454.242,4.027.045.792.111,1.847.111,3.036,0,3.5-.463,8.867-7.195,12.256a6.562,6.562,0,0,0-1.475-1.452c6.469-2.663,6.69-8.427,6.69-10.848a32.616,32.616,0,0,0-.772-7.767l2.246.11c.264.022.571.044.571.286C329.48,1127.812,329.216,1127.878,329.062,1127.9Z"/><path class="cls-1" d="M351.642,1145.217a14.624,14.624,0,0,0-5.9-3.169c0,.242.022.572.022.814,0,1.277-.242,3.5-4.158,3.5-3.038,0-5-1.5-5-3.19,0-2.311,2.883-3.212,5.172-3.212a17.9,17.9,0,0,1,1.957.153c-.021-.7-.043-.923-.064-2.662-1.078.044-1.52.067-2.113.067-1.209,0-4.489,0-4.489-1.717,0-.77.506-1.43,1.563-2.355l1.5.529c-.682.55-1.057.836-1.057,1.232,0,.572,1.805.594,2.707.594.946.022,1.627,0,1.848-.022-.021-1.1-.043-2.728-.043-3.829-3.895.155-6.228.418-7.5.573v-1.915c1.188-.087,6.426-.307,7.5-.374-.023-1.606-.023-2.156-.111-3.058l2.31.4c.176.022.352.132.352.286,0,.242-.307.308-.483.33-.045.484-.111,1.254-.111,2,1.078-.022,5.832-.11,6.8-.066l-.022,1.849c-1.056-.067-2.64-.176-6.8-.088-.022.748-.022,1.055-.022,3.784a31.412,31.412,0,0,0,6.27-.99v1.914a42.213,42.213,0,0,1-6.227.749c0,.594.066,2.574.088,3.08a19.061,19.061,0,0,1,7.283,3.19A17.8,17.8,0,0,0,351.642,1145.217Zm-7.877-3.565a6.022,6.022,0,0,0-1.85-.22c-2.023,0-3.431.594-3.431,1.716,0,1.518,2.486,1.607,2.837,1.607,2.487,0,2.487-1.5,2.487-2.223C343.808,1142.18,343.786,1141.916,343.765,1141.652Z"/><path class="cls-1" d="M373.152,1131.729c-1.3,0-2.575.022-3.874.066,0,1.517-.044,2.838.022,3.718a7.771,7.771,0,0,1,.859,3.587,9.428,9.428,0,0,1-1.98,5.588,10.587,10.587,0,0,1-3.652,2.794c-.354-.351-1.19-1.011-1.651-1.364,2.508-.989,4.289-2.244,5.082-4.929a3.385,3.385,0,0,1-2.6,1.233c-1.937,0-3.082-1.672-3.082-4.07,0-2.509,1.475-4.225,3.5-4.225a3.009,3.009,0,0,1,1.627.44c-.021-.419-.043-2.046-.043-2.684-2.507.109-6.974.483-9.418.88l-.175-2.069c1.517.023,8.185-.395,9.548-.462a24.914,24.914,0,0,0-.306-3.19l2.178.22c.308.022.527.044.527.286,0,.154-.264.264-.4.33a21.366,21.366,0,0,0-.087,2.267c6.425-.287,7.152-.309,7.724-.353a15.722,15.722,0,0,0,.043,2C376.21,1131.751,374.89,1131.729,373.152,1131.729Zm-7.284,3.96c-1.453,0-1.959,1.474-1.959,2.707,0,.505,0,2.486,1.805,2.486,1.275,0,2.223-1.21,2.223-2.817A2.184,2.184,0,0,0,365.868,1135.689Z"/><path class="cls-1" d="M385.052,1146.515a2.828,2.828,0,1,1,2.838-2.817A2.828,2.828,0,0,1,385.052,1146.515Zm0-4.6a1.772,1.772,0,1,0,1.781,1.782A1.775,1.775,0,0,0,385.052,1141.916Z"/><polygon class="cls-4" points="161.018 778.611 161.018 849.124 232.485 849.124 232.485 758.634 180.995 758.634 161.018 778.611"/><polygon class="cls-8" points="180.995 758.634 161.018 778.611 180.995 778.611 180.995 758.634"/><path class="cls-9" d="M173.251,787.828a1.5,1.5,0,1,1,0-3h47a1.5,1.5,0,0,1,0,3Zm47,9a1.5,1.5,0,0,0,0-3h-47a1.5,1.5,0,1,0,0,3Zm0,9a1.5,1.5,0,0,0,0-3h-47a1.5,1.5,0,1,0,0,3Zm0,9a1.5,1.5,0,0,0,0-3h-47a1.5,1.5,0,1,0,0,3Zm0,9a1.5,1.5,0,0,0,0-3h-47a1.5,1.5,0,1,0,0,3Zm-22,9a1.5,1.5,0,0,0,0-3h-25a1.5,1.5,0,1,0,0,3Z"/><path class="cls-10" d="M390.646,993.772a13.407,13.407,0,0,1-4.73,3.091c-3.713,2.228-9.341,3.771-15.931,4.714a135.426,135.426,0,0,1-21.089,1.137,135.433,135.433,0,0,1-21.089-1.137c-6.59-.943-12.218-2.486-15.931-4.714a13.407,13.407,0,0,1-4.73-3.091s-.04-1.077.063-2.778a6.283,6.283,0,0,1-.054-1.363,26.556,26.556,0,0,1,1.992-8.7c1.974-5.57,5.875-11,13.558-11.772.517-.226.974-.435,1.356-.639a5.584,5.584,0,0,0,1.116-2.684c.1-1.925.234-5.088.409-8.817-.179-8.737-1.109-20.584.744-29.948,1.656-8.377,9.809-16.483,22.2-16.483.125,0,.246,0,.37.006s.245-.006.37-.006c12.387,0,20.54,8.106,22.2,16.483,1.852,9.364.922,21.211.743,29.948.175,3.73.31,6.892.409,8.817a5.593,5.593,0,0,0,1.116,2.684c.382.2.84.413,1.356.639,7.683.768,11.584,6.2,13.558,11.772a26.556,26.556,0,0,1,1.992,8.7,6.284,6.284,0,0,1-.053,1.363C390.686,992.7,390.646,993.772,390.646,993.772Zm-50.54-65.038c-2.4-.322-5.237,1.4-6.67,3.642a15.821,15.821,0,0,0-2.093,7.079c-.084-.9-2.292.1-2.3,1.7-.028,7.6,3.574,7.062,3.574,7.062s4.719,16.143,16.072,16.143c11.209,0,15.456-16.593,16.344-16.228,1.3.536,2.732-2.288,3.4-5.275.838-3.726-2.7-3.88-3.4-1.7C362.963,940.288,342.853,929.1,340.106,928.734Zm23.616,39.025c-.715.181-4.233-2.63-4.584-4.37-2,1.513-6.653,4.687-10.447,4.687-.167,0-.335-.007-.5-.019-.17.012-.339.019-.5.019-3.794,0-8.445-3.174-10.447-4.687-.351,1.74-3.869,4.551-4.584,4.37a.481.481,0,0,0-.385.011,11.793,11.793,0,0,0,2.445,2.906c2.969,2.4,8.178,5.392,13.476,5.512,5.3-.12,10.507-3.116,13.476-5.512a11.781,11.781,0,0,0,2.444-2.906A.479.479,0,0,0,363.722,967.759Z"/><path class="cls-10" d="M212.891,974.156c.705-2.178,4.241-2.024,3.4,1.7-.672,2.987-2.1,5.811-3.4,5.275-.888-.365-5.136,16.228-16.345,16.228-11.353,0-16.072-16.143-16.072-16.143s-3.6.54-3.573-7.062c.006-1.6,2.214-2.6,2.3-1.7,0,0,.017-.605.923-.065.944.564.327-3.655.922-4.556.424-.641,1.2,5.874,1.724,5.049,1.433-2.245,2.8-11.471,5.194-11.149,1.043.14,4.84,8.276,9.332,9.342,4.726,1.121-4.623-9.326-2.107-8.891,1.22.212,3.51,4.031,5.472,6.087,1.63,1.71,2.536,2.49,4.405,2.724,1.282.16-3.308-9.683-1.414-9.3.789.16,1.625,4.027,2.616,5.215A90.456,90.456,0,0,0,212.891,974.156Zm25.548,49.838a6.284,6.284,0,0,0,.053-1.363c-.035-.492-.082-.968-.135-1.435a25.573,25.573,0,0,0-1.856-7.269,19.846,19.846,0,0,0-4.943-7.975c-.124-.116-.252-.23-.381-.342-.341-.3-.7-.581-1.07-.848q-.375-.265-.772-.509c-.154-.1-.309-.187-.468-.276-.184-.1-.372-.2-.563-.3-.234-.118-.473-.232-.718-.338q-.435-.189-.892-.353a15.766,15.766,0,0,0-3.751-.83c-.449-.2-7.781-.933-10.489-1.272a4.491,4.491,0,0,1-1.166-.173c-1.512-.256-6.994-1.231-4.3-4.321a2.828,2.828,0,0,1,1.589-.732c.286-.956,6.048-5.7,9.253-10.565,1.793-2.719,2.937-11.471,3.073-13.5.175-2.6-1.622-10.083-1.59-11.522h0c-1.657-8.375-9.808-16.481-22.193-16.482h0c-.125,0-.247,0-.371.006s-.245-.006-.37-.006h0c-12.385,0-20.536,8.107-22.193,16.482h0c.031,1.438-.717,11.435-.2,15.7A28.6,28.6,0,0,0,176.9,986.4c2.78,4.961,7.789,8.485,8.021,9.261a2.828,2.828,0,0,1,1.589.732c2.7,3.09-2.783,4.065-4.295,4.321a4.5,4.5,0,0,1-1.166.173c-2.708.339-10.04,1.076-10.489,1.272a15.766,15.766,0,0,0-3.751.83q-.458.163-.892.353c-.245.106-.484.22-.718.338-.191.1-.379.2-.563.3-.159.089-.314.181-.468.276-.264.163-.523.332-.772.509-.374.267-.729.551-1.07.848-.236.2-.465.413-.685.63a20.133,20.133,0,0,0-4.639,7.687,25.573,25.573,0,0,0-1.856,7.269c-.054.467-.1.943-.135,1.435a6.221,6.221,0,0,0,.053,1.363c-.1,1.7-.062,2.778-.062,2.778a8.981,8.981,0,0,0,1.923,1.612,19.839,19.839,0,0,0,2.807,1.479c3.713,2.228,9.341,3.771,15.931,4.714A130.764,130.764,0,0,0,194,1035.74q1.374,0,2.752-.026,1.378.024,2.752.026a130.779,130.779,0,0,0,18.337-1.163c6.59-.943,12.218-2.486,15.931-4.714a18.048,18.048,0,0,0,3.375-1.87,8.063,8.063,0,0,0,1.355-1.221S238.542,1025.7,238.439,1023.994Z"/><path class="cls-11" d="M58.44,931.765c.931-1.472,3.792.411,5.364.642h0a64.151,64.151,0,0,0,.023-8.622c-.185-4.643-.565-9.635-1.412-11.18-1.949-3.558-6.9-8.038-7.972-8.336a32.88,32.88,0,0,0-10.013-1.42,21.9,21.9,0,0,0-7.526,2.324c-2.466,1.41-3.433,3.166-4.041,3.4-.214-.013-5-.249-7.69,2.189-3.19,2.889-4.352,8.648-4.383,10.428-.072,4.154,2.009,8.634,2.058,11.777,1.975-.609,5.785,1.759,5.877,1.336.623-2.865,1.137-8.9,1.827-10.253,1.236-2.414,3.685-4.262,5.752-3.916s15.441,9.088,20.071,12.08A1.486,1.486,0,0,0,58.44,931.765Z"/><path class="cls-12" d="M26.4,944.184a87.119,87.119,0,0,0,1.478,9.177,13.659,13.659,0,0,0,3.341,4.319,18.354,18.354,0,0,0,4.095,2.612c.354.07,1.185,6.262-1.423,7.408-.081.035-3.857,1.6-8.129,3.371h0s8.706,7.643,17.8,7.643,18.931-7.643,18.931-7.643h0c-4.748-1.885-9.266-3.677-9.453-3.73-1.5-.253-1.692-3.665-.989-7.463a.586.586,0,0,1,.378-.443h0a10.78,10.78,0,0,0,5.98-5.3l.336-.666a1.413,1.413,0,0,0,.294-.384c1.039-2.055,1.343-9.17,1.794-9.252,4.53-.819,5.214-13.5.658-12.664a5,5,0,0,0-2.263,1.793,1.244,1.244,0,0,1-2.02.351,8.053,8.053,0,0,0-1.218-1.032c-4.63-2.992-18.012-11.736-20.072-12.081a2.952,2.952,0,0,0-.364-.036c-1.947,0-4.109,1.733-5.245,3.953-.691,1.349-2.221,7.44-2.844,10.305-.011.05-.965,1.085-.966,1.09-.084.387-.522-2.48-2.422-2.534a4.207,4.207,0,0,0-2.23,2.687c-.3,1.662.69,4.258,1.3,5.262A13.176,13.176,0,0,0,26.4,944.184Z"/><path class="cls-11" d="M85.064,992.452a1.651,1.651,0,0,1,.01-.281,6.213,6.213,0,0,0,.035-1.224c-.035-.491-.082-.967-.135-1.434a25.588,25.588,0,0,0-1.857-7.27c-1.032-2.911-2.592-3.131-4.942-5.321q-.187-.174-.381-.342c-.341-.3-.7-.581-1.07-.848-.25-.178-.508-.346-.773-.51q-.229-.141-.467-.275c-.184-.1-.372-.205-.564-.3-.234-.118-.473-.232-.717-.339q-.435-.189-.893-.352c-1.138-.407-10.5-4.308-10.883-4.417L58.65,972.5a47.587,47.587,0,0,1-6.859,3.459l-4.609.929c-3.015.918-6.444.207-9.473-.662a23.192,23.192,0,0,1-3.408-1.266c-3.865-1.805-7.64-5.8-9.782-4.917-5.248,2.173-10.841,4.485-11.093,4.575q-.457.162-.892.352-.368.16-.718.338-.287.145-.564.3-.237.133-.467.276c-.264.163-.523.332-.772.51-.374.266-.729.55-1.071.847-.235.2-.464.413-.685.631-2.182,2.15-3.651,2.248-4.638,5.033a20.947,20.947,0,0,0-1.856,6.606c-.054.467-.1.943-.136,1.434a6.213,6.213,0,0,0,.035,1.224,1.554,1.554,0,0,1,.01.281c-.049.875-.061,1.574-.061,2.032a1.5,1.5,0,0,0,.472,1.089A10.145,10.145,0,0,0,3.541,996.7c.8.516,12.148,1.934,18.738,2.877a130.779,130.779,0,0,0,18.337,1.163q1.374,0,2.752-.026,1.377.024,2.752.026a130.779,130.779,0,0,0,18.337-1.163c6.59-.943,18.406-2.609,19.306-3.268a8.935,8.935,0,0,0,.89-.736,1.5,1.5,0,0,0,.473-1.09C85.126,994.026,85.114,993.327,85.064,992.452Z"/><g class="cls-13"><polygon class="cls-1" points="196.752 875.805 177.615 901.321 188.496 901.321 188.496 917.08 205.007 917.08 205.007 901.321 215.888 901.321 196.752 875.805"/></g><g class="cls-13"><polygon class="cls-1" points="109.205 865.805 77.631 870.315 85.326 878.01 74.182 889.154 85.856 900.828 97 889.684 104.695 897.379 109.205 865.805"/></g><g class="cls-13"><polygon class="cls-1" points="284.298 865.805 315.872 870.315 308.177 878.01 319.321 889.154 307.647 900.828 296.503 889.684 288.808 897.379 284.298 865.805"/></g><line class="cls-2" x1="17.752" y1="1207.576" x2="17.752" y2="1207.576"/><line class="cls-3" x1="29.752" y1="1207.576" x2="371.752" y2="1207.576"/><line class="cls-2" x1="377.752" y1="1207.576" x2="377.752" y2="1207.576"/></g></g></svg>