<svg xmlns="http://www.w3.org/2000/svg" width="43.204" height="35.04" viewBox="0 0 43.204 35.04"><path d="M4300.432,1146.609c16.3,0,25.22-13.48,25.22-25.168,0-.383-.007-.764-.025-1.143a18.03,18.03,0,0,0,4.422-4.58,17.733,17.733,0,0,1-5.091,1.392,8.879,8.879,0,0,0,3.9-4.893,17.793,17.793,0,0,1-5.628,2.147,8.866,8.866,0,0,0-15.106,8.067,25.184,25.184,0,0,1-18.27-9.242A8.839,8.839,0,0,0,4292.6,1125a8.808,8.808,0,0,1-4.015-1.106c0,.037,0,.074,0,.112a8.853,8.853,0,0,0,7.112,8.672,8.88,8.88,0,0,1-4,.152,8.871,8.871,0,0,0,8.28,6.144,17.812,17.812,0,0,1-11.009,3.786,18.209,18.209,0,0,1-2.114-.122,25.137,25.137,0,0,0,13.587,3.973" transform="translate(-4286.845 -1111.569)" fill="#fff"/></svg>