<svg xmlns="http://www.w3.org/2000/svg" viewBox="0 0 40 32.441"><defs><style>.cls-1{fill:#b5b5b6;}</style></defs><title>icn_twitter_off</title><g id="レイヤー_2" data-name="レイヤー 2"><g id="layout"><path class="cls-1" d="M12.58,32.441c15.1,0,23.35-12.48,23.35-23.3,0-.355-.007-.708-.024-1.059A16.687,16.687,0,0,0,40,3.841,16.4,16.4,0,0,1,35.287,5.13,8.225,8.225,0,0,0,38.9.6a16.439,16.439,0,0,1-5.211,1.988A8.209,8.209,0,0,0,19.7,10.056,23.314,23.314,0,0,1,2.784,1.5,8.183,8.183,0,0,0,5.325,12.433a8.153,8.153,0,0,1-3.717-1.025c0,.035,0,.069,0,.105A8.2,8.2,0,0,0,8.19,19.541a8.188,8.188,0,0,1-3.706.141A8.211,8.211,0,0,0,12.15,25.37,16.485,16.485,0,0,1,1.958,28.876,16.659,16.659,0,0,1,0,28.762a23.265,23.265,0,0,0,12.58,3.679"/></g></g></svg>