<svg xmlns="http://www.w3.org/2000/svg" xmlns:xlink="http://www.w3.org/1999/xlink" viewBox="0 0 319.259 190.474"><defs><style>.cls-1{fill:#231815;}.cls-2{fill:url(#名称未設定グラデーション_19);}.cls-3{fill:url(#名称未設定グラデーション_19-2);}</style><linearGradient id="名称未設定グラデーション_19" x1="119.679" y1="72.879" x2="206.965" y2="72.879" gradientUnits="userSpaceOnUse"><stop offset="0.002" stop-color="#ffe100"/><stop offset="1" stop-color="#fff100"/></linearGradient><linearGradient id="名称未設定グラデーション_19-2" x1="97.957" y1="173.959" x2="211.772" y2="173.959" xlink:href="#名称未設定グラデーション_19"/></defs><title>logo</title><g id="レイヤー_2" data-name="レイヤー 2"><g id="layout"><path class="cls-1" d="M113.718,134.307h18.226a2,2,0,0,0,1.986-2.978L106.674,65.883a8.885,8.885,0,0,1,0-5.955L129.358,5.459a2,2,0,0,0-1.985-2.978H109.147a5.227,5.227,0,0,0-4.465,2.978L89.959,40.81c-.685,1.645-1.24,1.534-1.24-.248V5.707a3.225,3.225,0,0,0-3.225-3.226H68.275A3.225,3.225,0,0,0,65.05,5.707V131.081a3.225,3.225,0,0,0,3.225,3.226H85.494a3.225,3.225,0,0,0,3.225-3.226V106.265a19.23,19.23,0,0,1,1.24-6.2l1.9-4.553c.685-1.644,1.8-1.644,2.48,0l14.918,35.82A5.228,5.228,0,0,0,113.718,134.307Z"/><path class="cls-1" d="M167.76,113.772h21.164A3.225,3.225,0,0,1,192.149,117v14.085a3.225,3.225,0,0,1-3.225,3.225H142.837a3.225,3.225,0,0,1-3.226-3.225V5.707a3.226,3.226,0,0,1,3.226-3.226h43.107a3.226,3.226,0,0,1,3.226,3.226V19.791a3.225,3.225,0,0,1-3.226,3.225H167.76a3.226,3.226,0,0,0-3.226,3.226v84.3A3.226,3.226,0,0,0,167.76,113.772Z"/><path class="cls-1" d="M209.116,23.016h-10.5a3.225,3.225,0,0,1-3.226-3.225V5.707a3.226,3.226,0,0,1,3.226-3.226h52.226a3.225,3.225,0,0,1,3.225,3.226V19.791a3.225,3.225,0,0,1-3.225,3.225h-10.5a3.226,3.226,0,0,0-3.226,3.226v104.84a3.225,3.225,0,0,1-3.225,3.225H215.567a3.225,3.225,0,0,1-3.226-3.225V26.242A3.226,3.226,0,0,0,209.116,23.016Z"/><path class="cls-1" d="M271.553,23.016h-10.5a3.225,3.225,0,0,1-3.226-3.225V5.707a3.226,3.226,0,0,1,3.226-3.226h52.226A3.225,3.225,0,0,1,316.5,5.707V19.791a3.225,3.225,0,0,1-3.225,3.225h-10.5a3.226,3.226,0,0,0-3.225,3.226v104.84a3.225,3.225,0,0,1-3.225,3.225H278a3.225,3.225,0,0,1-3.226-3.225V26.242A3.226,3.226,0,0,0,271.553,23.016Z"/><path class="cls-2" d="M166.283,100.191a3.494,3.494,0,0,1-2.218-1.1l-.8-.828L160.2,95.145l-3.065,2.66a3.1,3.1,0,0,1-1.737.759,3.052,3.052,0,0,1-.315.017,3.111,3.111,0,0,1-2.351-1.068,3.079,3.079,0,0,1-.73-1.556l-.415-2.66-2.558.841a3.227,3.227,0,0,1-.666.147c-.09.008-.2.014-.314.014a3.107,3.107,0,0,1-3.113-3.271l.118-2.4-2.572,0a3.117,3.117,0,0,1-2.98-3.253L139.607,83h-2.4a3.142,3.142,0,0,1-2.4-1.065,3.121,3.121,0,0,1,.3-4.4l4.186-3.655L133.5,67.993l-1.53.877L119.8,65.489a.182.182,0,0,1-.118-.211l5.539-19.6a.181.181,0,0,1,.167-.124l12.083,3.41.646,1.387,1.631.027,17.954-.8,2.353-1.693a3.518,3.518,0,0,1,3.027-.529l12.884,3.676,12.527-.712.57-1.265s12.161-3.5,12.168-3.5a.179.179,0,0,1,.187.117l5.539,19.6a.177.177,0,0,1-.118.211l-12.04,3.4-1.695-.819-1.241,1.493L187,76.054l3.881,3.957a3.55,3.55,0,0,1,.942,1.937,3.625,3.625,0,0,1-1.073,3.146,3.558,3.558,0,0,1-1.954.954l-.2.027-.212.014H188.2l-.266-.012a3.965,3.965,0,0,1-.649-.115l-2.4-.665-.452,2.454a3.588,3.588,0,0,1-3.021,2.917l-.384.037-.315.008c-.037,0-.232-.022-.422-.053l-2.4-.388-.239,2.419a3.589,3.589,0,0,1-2.895,3.185l-.356.052-.365.019-.361-.021a3.743,3.743,0,0,1-.63-.123l-2.283-.656-.567,2.307a3.609,3.609,0,0,1-1,1.748,3.551,3.551,0,0,1-2.147.983l-.365.017Z"/><path d="M209.159,64.658l-5.538-19.6a2.464,2.464,0,0,0-3.031-1.7l-12.041,3.4a2.453,2.453,0,0,0-1.568,1.355l-10.758.612-12.511-3.57a5.813,5.813,0,0,0-4.989.872l-1.8,1.3-17.273.766a2.451,2.451,0,0,0-1.555-1.33l-12.041-3.4a2.464,2.464,0,0,0-3.031,1.7l-5.538,19.6a2.463,2.463,0,0,0,1.7,3.031l12.041,3.4a2.45,2.45,0,0,0,1.889-.238l2.849,2.9-2.358,2.06a5.4,5.4,0,0,0,3.559,9.472h.057a5.4,5.4,0,0,0,5.4,5.635h.036a5.4,5.4,0,0,0,5.4,5.669c.183,0,.368-.01.55-.028a5.436,5.436,0,0,0,1.144-.247,5.4,5.4,0,0,0,8.889,3.221l1.442-1.252,1.547,1.573.793.823a5.829,5.829,0,0,0,3.857,1.8h.011c.07,0,.14.008.21.01l.12,0h.136c.058,0,.117,0,.175-.005l.077,0c.077,0,.153-.01.229-.017l.026,0A5.873,5.873,0,0,0,172.408,98a5.911,5.911,0,0,0,1.055.2l.088.01c.078.006.156.009.234.013s.126.006.189.007l.07,0c.055,0,.109,0,.163,0l.11,0c.1,0,.2-.012.3-.021.07-.007.138-.016.207-.025l.1-.014c.08-.012.159-.024.237-.039l.026-.006a5.876,5.876,0,0,0,4.734-5.2,6,6,0,0,0,.946.076h.031c.043,0,.086,0,.129,0l.164,0,.191-.014.093-.009c.077-.007.153-.016.229-.027l.031,0a5.871,5.871,0,0,0,4.941-4.763,5.989,5.989,0,0,0,1.079.188l.036,0c.08.006.159.008.238.012.057,0,.114.005.171.005l.044,0c.079,0,.156,0,.234-.006.059,0,.118-.006.177-.01s.121-.008.182-.014.137-.015.206-.025l.093-.013a5.888,5.888,0,0,0,3.379-9.9l-2.506-2.557,3.684-4.918a2.445,2.445,0,0,0,1.73.155l12.041-3.4A2.463,2.463,0,0,0,209.159,64.658ZM137.147,82.173a2.293,2.293,0,0,1-1.5-4.019l6.193-5.408a2.274,2.274,0,0,1,1.27-.554,2.221,2.221,0,0,1,.245-.013,2.294,2.294,0,0,1,2.279,2.448,2.281,2.281,0,0,1-.779,1.572l-6.193,5.408a2.271,2.271,0,0,1-1.269.553A2.239,2.239,0,0,1,137.147,82.173Zm5.456,5.634a2.293,2.293,0,0,1-1.5-4.019L147.3,78.38a2.274,2.274,0,0,1,1.27-.554c.082-.008.165-.013.245-.013a2.257,2.257,0,0,1,1.72.785,2.3,2.3,0,0,1-.219,3.235l-6.193,5.408a2.31,2.31,0,0,1-1.516.566Zm5.679,5.655a2.221,2.221,0,0,1-.245.013,2.256,2.256,0,0,1-1.72-.785,2.3,2.3,0,0,1,.219-3.235l6.194-5.408A2.269,2.269,0,0,1,154,83.494a2.221,2.221,0,0,1,.245-.013,2.256,2.256,0,0,1,1.72.785,2.3,2.3,0,0,1-.219,3.234l-6.193,5.408A2.274,2.274,0,0,1,148.282,93.462Zm8.3,3.727a2.284,2.284,0,0,1-1.27.554c-.081.008-.163.012-.245.012a2.255,2.255,0,0,1-1.72-.784,2.3,2.3,0,0,1,.219-3.235l4.525-3.927a2.279,2.279,0,0,1,1.27-.555c.081-.008.164-.012.245-.012a2.252,2.252,0,0,1,1.72.785,2.3,2.3,0,0,1-.219,3.234ZM188.261,85.1h0c-.058,0-.117,0-.175-.006h-.007a2.637,2.637,0,0,1-.529-.09l-.131-.037a2.62,2.62,0,0,1-1.069-.671l-2.461-2.556a1.474,1.474,0,0,0-1.905-.187l-.274.192a1.473,1.473,0,0,0-.217,2.231l1.265,1.312a2.6,2.6,0,0,1,.7,1.421A2.564,2.564,0,0,1,182.678,89a2.609,2.609,0,0,1-1.553.713c-.08.007-.16.012-.241.012-.061,0-.122,0-.182-.008l-.041,0c-.065-.006-.13-.014-.194-.024-.048-.007-.1-.013-.143-.023a2.623,2.623,0,0,1-1.35-.748l-2.154-2.237a1.472,1.472,0,0,0-1.9-.187l-.3.212a1.474,1.474,0,0,0-.218,2.231l1.538,1.6a2.6,2.6,0,0,1,.7,1.421,2.561,2.561,0,0,1-.779,2.283,2.6,2.6,0,0,1-1.543.712c-.082.008-.165.012-.248.012a2.68,2.68,0,0,1-.741-.105l-.126-.036a2.638,2.638,0,0,1-1.046-.663l-.233-.243a5.858,5.858,0,0,0-.987-1.389l-1-1.035a1.473,1.473,0,0,0-1.9-.185l-.271.189a1.474,1.474,0,0,0-.217,2.231l1.027,1.065a2.587,2.587,0,0,1,.59.973,2.679,2.679,0,0,1,.109.448,2.561,2.561,0,0,1-.779,2.283,2.6,2.6,0,0,1-1.554.713,2.4,2.4,0,0,1-.24.012,2.6,2.6,0,0,1-1.893-.8l-2.244-2.283.6-.524a5.4,5.4,0,0,0-3.531-9.472,5.4,5.4,0,0,0-5.392-5.761H154.2a5.4,5.4,0,0,0-5.4-5.669l-.058,0a5.4,5.4,0,0,0-5.4-5.636c-.183,0-.368.01-.551.028a5.378,5.378,0,0,0-3,1.305l-1.364,1.192-3.686-3.75-.031-.08,4.628-16.379,12.728-.564-1.714,1.233a5.812,5.812,0,1,0,6.79,9.435l6.084-4.377,5.888,2.123,21.017,21.441a2.6,2.6,0,0,1,.7,1.42,2.559,2.559,0,0,1-.778,2.283,2.6,2.6,0,0,1-1.548.713C188.425,85.1,188.344,85.1,188.261,85.1Zm-.57-11.616L170.93,56.409l-7.054-2.545-1.159-.418-7.485,5.386a2.538,2.538,0,1,1-2.964-4.12l5.776-4.156,2.591-1.865a2.524,2.524,0,0,1,1.483-.478,2.564,2.564,0,0,1,.7.1l13.043,3.721,11.445-.65,4.642,16.428Z"/><path class="cls-1" d="M27.276,136.788C7.525,136.788,0,125.973,0,107.319V87.27a3.181,3.181,0,0,1,3.225-3.135h17.22a3.225,3.225,0,0,1,3.226,3.225v22.154c0,6.27,1.1,7.837,3.447,7.837,2.2,0,2.978-2.194,2.978-6.112V94.324c0-7.838-.94-10.189-10.5-19.124C6.9,63.288.94,57.174.94,41.968V29.625C.94,12.853,7.211,0,27.432,0,49.691,0,53.61,13.637,53.61,27.745V43.3a3.22,3.22,0,0,1-3.226,3.214H34.89a3.225,3.225,0,0,1-3.225-3.225V26.178c0-5.329-.942-6.741-3.293-6.741-1.881,0-2.978,1.567-2.978,6.27V38.05c0,5.487.941,7.681,8.778,14.735,14.264,12.7,21.005,19.28,21.005,35.9V105.6C55.177,124.718,49.378,136.788,27.276,136.788Z"/><path class="cls-1" d="M303.334,190.474a15.925,15.925,0,1,0,0-31.85H16.817a15.925,15.925,0,0,0,0,31.85Z"/><path class="cls-3" d="M99.546,169.572v-2.191h8.772a4.664,4.664,0,0,0,1.192-.141l1.173,1.263a5.653,5.653,0,0,0-.655,1.105,28.009,28.009,0,0,1-2.227,4.4A39.256,39.256,0,0,1,113.189,179c-.6.658-1.572,1.727-1.78,1.969a23.555,23.555,0,0,0-4.905-5.147,20.171,20.171,0,0,1-6.907,5.389,6.217,6.217,0,0,0-1.64-2.019,15.223,15.223,0,0,0,9.377-9.621Zm36.5,2.694a26.893,26.893,0,0,1-2.973,3.816,10.345,10.345,0,0,0-2.019-1.448,20.58,20.58,0,0,0,5.372-8.741l2.382.917c.121.051.275.121.275.259,0,.171-.343.225-.517.258-.38.934-.776,1.8-1.21,2.678h8.9v2.261h-4.317a11.129,11.129,0,0,1-5.563,9.759,10.17,10.17,0,0,0-1.9-1.606c2.365-1.33,4.8-3.248,5.009-8.153Zm32.792-1.811a23.924,23.924,0,0,1,1.622,3.279,8.951,8.951,0,0,0-1.864.9,23.84,23.84,0,0,0-1.657-3.386Zm10.017.1c.172.053.309.087.309.225,0,.174-.225.225-.329.242-1.327,5.405-3.591,8.254-8.375,10.242a6.344,6.344,0,0,0-1.381-1.659c3.592-1.364,6.787-3.437,7.667-9.7Zm-6.409-.931a13.511,13.511,0,0,1,1.485,3.35,17.485,17.485,0,0,0-1.865.759,21.477,21.477,0,0,0-1.535-3.333Zm33.1,1.277a25.979,25.979,0,0,1,6.235,4.179c-.675.709-.917,1-1.659,1.884a23.864,23.864,0,0,0-5.456-3.869v8.428h-2.452V166.377l2.452.14c.172.017.326.034.326.189,0,.191-.222.242-.326.259v5.18Z"/></g></g></svg>