<svg xmlns="http://www.w3.org/2000/svg" viewBox="0 0 525.374 129.865"><defs><style>.cls-1{fill:#fff;}</style></defs><title>logo_1</title><g id="レイヤー_2" data-name="レイヤー 2"><g id="layout"><rect class="cls-1" x="292.96" y="24.148" width="19.308" height="43.021"/><rect class="cls-1" x="321.046" y="24.148" width="19.308" height="43.021"/><path class="cls-1" d="M306.345,126.359V105.1q15.948-2.733,26.352-11.542a57.487,57.487,0,0,0,15.642-20.5,134.451,134.451,0,0,0,7.973-22.781,163.677,163.677,0,0,0,3.646-18.453,64.62,64.62,0,0,0,.759-7.669h20.352a210.421,210.421,0,0,1-3.189,24.224,149.766,149.766,0,0,1-6.76,23.086,97.2,97.2,0,0,1-13.212,23.92A84.27,84.27,0,0,1,336.8,115.273Q324.268,123.625,306.345,126.359Z"/><path class="cls-1" d="M0,128.486V101.3A104.48,104.48,0,0,0,23.769,84.9a163.7,163.7,0,0,0,19.82-22.021q9.26-12.3,17.009-31.438H5.62V6.986H92.948C87.4,46.613,48.707,108.529,0,128.486Z"/><rect class="cls-1" x="433.486" y="1.216" width="23.995" height="127.27"/><path class="cls-1" d="M69.862,102.744a179.605,179.605,0,0,0,14.277,13.592q6.682,5.622,14.884,11.544V98.87q-.154-.147-5.089-4.176A113.5,113.5,0,0,1,82.241,83.228c-3-3.306-6.02-6.859-9.045-10.617a211,211,0,0,1-13.633,18.3Q64.6,97.2,69.862,102.744Z"/><path class="cls-1" d="M141.277,82.469V54.675q.15.154,3.34-2.733a43.5,43.5,0,0,0,7.139-9.34,127.44,127.44,0,0,0,8.353-17.011A109.583,109.583,0,0,0,166.792,0h24C185.339,29.05,174.623,62.687,141.277,82.469Z"/><path class="cls-1" d="M192.5,24.148a137.741,137.741,0,0,1-9.743,24.3h65.133v-24.3Z"/><path class="cls-1" d="M189.953,78.064q-7.368,11.241-15.72,17.162t-14.2,8.049q-5.849,2.129-6.15,1.975v24.6q.147.15,6-1.594a92.09,92.09,0,0,0,14.96-6.454,114.431,114.431,0,0,0,19.44-13.138q10.327-8.43,18.756-23.312,7-12.354,9.838-29.651H198.613Q195.781,69.12,189.953,78.064Z"/><path class="cls-1" d="M511.134,78.695h-46.4V64.345c0-7.529,10.386-18.167,23.2-18.167s23.2,10.638,23.2,18.167Z"/><path class="cls-1" d="M511.134,78.695c16.648,0,15.034-14.554,13-21.563-1.926-6.64-7.341-24.674-7.341-24.674l-7.357,3.366Z"/><ellipse class="cls-1" cx="509.565" cy="35.365" rx="7.797" ry="7.498" transform="translate(23.865 193.489) rotate(-22.003)"/></g></g></svg>