<svg xmlns="http://www.w3.org/2000/svg" viewBox="0 0 283 116" width="283" height="116"><defs><style>.cls-1{fill:#fff;}</style></defs><title>ttl_pc</title><g id="レイヤー_2" data-name="レイヤー 2"><g id="layout"><path class="cls-1" d="M9.863,97.755h4.083V94.474l3.057.09c.223,0,.424.067.424.29,0,.2-.112.334-.424.558v2.343h3.615l1.517,1.338a40.786,40.786,0,0,1-2.03,4.463c-1.451-.625-1.763-.781-2.633-1.093a7.773,7.773,0,0,0,.714-1.852H17v3.012h2.812l1.383,1.339a18.657,18.657,0,0,1-2.99,5.578,21.578,21.578,0,0,0,3.615,2.365,6.77,6.77,0,0,0-2.1,2.366,20.309,20.309,0,0,1-3.5-2.633,15.277,15.277,0,0,1-4.106,2.566,5.042,5.042,0,0,0-1.428-1.942,16.141,16.141,0,0,1-1.249,1.875,6.716,6.716,0,0,0-2.655-1.54,13.234,13.234,0,0,0,3.079-9.238,6.91,6.91,0,0,1-.737,1.005,16.572,16.572,0,0,0-1.562-1.317,8.047,8.047,0,0,0,1.5-2.165l.8.492V99a20.73,20.73,0,0,1-2.856,4.708,13.335,13.335,0,0,0,2.587,2.99,8.278,8.278,0,0,0-1.918,2.075,7.138,7.138,0,0,1-.96-1v7.274H3.659v-7.743c-.379.357-.625.558-1.25,1.071A11.846,11.846,0,0,0,0,106.3a18.232,18.232,0,0,0,5.422-5.489H.981V97.755H3.659V94.474l3.3.09c.134,0,.446,0,.446.29,0,.245-.312.468-.446.535v2.366H8.546l1.317.825Zm4.373,12.74a18.675,18.675,0,0,1-1.718-2.61,17.484,17.484,0,0,1-1.428,4.641A11.84,11.84,0,0,0,14.236,110.5Zm-1.451-6.872h1.161v-3.012H12.785Zm1.5,2.7a12.238,12.238,0,0,0,1.807,2.276,11.593,11.593,0,0,0,1.361-2.276Z"/><path class="cls-1" d="M38.056,103.155c.157.022.38.066.38.267,0,.179-.246.312-.492.424-.066,1.026-.11,1.361-.155,1.674,1.7,4.462,4.842,5.868,8.568,6.805a13.032,13.032,0,0,0-1.762,2.9c-1.585-.469-5.8-1.74-8.079-5.735a13.119,13.119,0,0,1-8.032,5.646,9.484,9.484,0,0,0-1.941-2.834c2.632-.513,4.551-1.316,6.068-3.012,1.763-1.964,1.831-3.5,1.9-6.493l1.942.2a28.523,28.523,0,0,0-3.659-4.083,18.75,18.75,0,0,0,3.592-4.574l2.834,1.182c.245.112.335.223.335.357,0,.268-.381.312-.8.312-.245.38-.6.871-1.094,1.518-.312.4-.714.959-.847,1.116a21.365,21.365,0,0,1,2.722,3.034,11.181,11.181,0,0,0-2.187,1.228Zm-4.462-7.476c.134.045.267.134.267.268,0,.335-.424.38-.937.4-.268.379-.692.937-.893,1.16-.579.647-.869.96-1.182,1.3.334.4,1.874,2.1,2.165,2.454.356.446.6.736.8,1a18.754,18.754,0,0,0-2.9,1.7A25.076,25.076,0,0,0,26.676,99a16.738,16.738,0,0,0,3.682-4.686Zm-1.161,8.636c.134.022.29.089.29.268s-.245.312-.446.4a22.439,22.439,0,0,1-1.406,4.262,15.555,15.555,0,0,0-3.28-.758,15.39,15.39,0,0,0,1.74-4.82Zm12.853.647c.2.111.245.2.245.29,0,.312-.446.29-.781.29-.29.379-1.494,2.053-1.763,2.388-.356.446-.6.736-.8.959a13.135,13.135,0,0,0-2.856-1.383,30.8,30.8,0,0,0,2.99-4.151,39.961,39.961,0,0,0-3.592-4.172,25.522,25.522,0,0,0,3.458-4.664L45.241,95.9c.157.068.223.135.223.246,0,.179-.178.268-.714.357-.736.87-1.807,2.164-2.142,2.61a21.582,21.582,0,0,1,2.811,3.3c-.423.179-1.629.8-2.432,1.227Z"/><path class="cls-1" d="M58.4,100.232v2.9H56.415v6.27c.892-.29,1.495-.513,2.209-.781a17.587,17.587,0,0,0-.223,2.366c0,.289.022.49.044.758-1.784.714-5.466,1.852-6.136,2.053-.155.469-.223.6-.379.6-.223,0-.29-.2-.335-.379l-.848-3.191c1.428-.29,1.941-.424,2.388-.535v-7.163H51.283v-2.9h1.852V94.988l3.615.223a.26.26,0,0,1,.29.245c0,.179-.157.246-.625.4v4.374Zm5.4,1.16V94.7l3.28.2c.134,0,.335.066.335.245s-.112.223-.536.4v4.575l3.034-1.272,1.362.647v8.122a2.107,2.107,0,0,1-1.339,2.321,7.338,7.338,0,0,0,2.187,1.2c-.558,3.124-1.651,3.659-4.128,3.659H62.841c-1.472,0-3.347-.2-3.347-2.9v-5.466l-1.606.669-1.094-2.789,2.7-1.116V96.215l3.459.245c.111,0,.357.023.357.246,0,.2-.111.223-.581.4v4.73Zm-1.072,3.681v5.713c0,.468,0,1.115.894,1.115h3.7c1.249,0,1.65-.424,1.852-1.829a11.674,11.674,0,0,1-1.317.066,7.11,7.11,0,0,0-.982-3.1v3.1H63.8v-5.511Zm4.151-1.74v3.637a4.3,4.3,0,0,0,.692.067c.558,0,.558-.312.558-.714v-3.5Z"/><path class="cls-1" d="M86.541,111.12a7.13,7.13,0,0,0,6.27-6.962,5.287,5.287,0,0,0-5.155-5.466c-.691,8.166-4.061,14.258-6.426,14.258-1.74,0-4.975-2.945-4.975-7.073a10.953,10.953,0,0,1,10.933-10.4c4.886,0,9.149,3.326,9.149,8.658a10.389,10.389,0,0,1-2.634,6.9,12.353,12.353,0,0,1-4.841,3.236A14.465,14.465,0,0,0,86.541,111.12Zm-6.985-5.511c0,1.718.96,3.012,1.428,3.012.536,0,.96-1,1.206-1.584a19.535,19.535,0,0,0,1.718-7.676A7.584,7.584,0,0,0,79.556,105.609Z"/><path class="cls-1" d="M110.45,101.882V98.536h2.877V94.564l3.214.156c.178,0,.424.044.424.312,0,.2-.2.357-.424.491v3.013h4.552c0,2.923-.157,12.2-1.272,14.481-.268.536-.892,1.785-3.57,1.785-.268,0-.447-.022-.714-.045a7.985,7.985,0,0,0-1.384-3.369,10.653,10.653,0,0,1-2.744,3.637,8.188,8.188,0,0,0-3.124-1.673,11.1,11.1,0,0,0,2.053-2.031c-1.138.312-7.565,1.83-8.591,1.986-.223.446-.38.736-.647.736-.312,0-.38-.334-.447-.669l-.579-3.347c.379-.022.958-.089,1.428-.156V95.256h8.389v13.209c.559-.156.826-.223,1.116-.312-.023.289-.044.937-.044,1.338,0,.357.021.625.044.938a16.543,16.543,0,0,0,2.276-8.547Zm-3.7-1.985V98.223h-2.052V99.9Zm0,4.641V102.6h-2.052v1.941Zm-2.052,4.842c.892-.156,1.606-.29,2.052-.379v-1.763h-2.052Zm11.736-7.5a25.117,25.117,0,0,1-2.254,9.462,8.929,8.929,0,0,0,1.875.4.972.972,0,0,0,.96-.535,41.462,41.462,0,0,0,.915-9.328Z"/><path class="cls-1" d="M126.729,102.173c.871-.157,3.28-.714,4.463-1a23.58,23.58,0,0,1,5.757-.914c5.065,0,6.381,3.548,6.381,5.98,0,3.458-2.186,5.377-4.909,6.359a23.15,23.15,0,0,1-6.136,1.049,12.234,12.234,0,0,0-1.093-3.347,12.875,12.875,0,0,0,1.875.111c3.257,0,6.916-.691,6.916-4.128,0-2.409-1.539-3.034-3.1-3.034-3.124,0-7.095,1.852-8.948,2.722Z"/><path class="cls-1" d="M159.749,94.742c.49.045.535.268.535.335,0,.156-.066.245-.535.468-.156,7.029-.268,12.183,8.769,16.6a7.045,7.045,0,0,0-2.365,2.767,16.226,16.226,0,0,1-4.53-3.213,20.57,20.57,0,0,1-3.548-4.6c-.29.759-.826,2.142-3.324,4.574a17.107,17.107,0,0,1-4.619,3.214,8.65,8.65,0,0,0-2.812-2.678A12.087,12.087,0,0,0,155,105.408c1.027-2.61,1.318-5.065,1.184-10.911Z"/><path class="cls-1" d="M175.028,103.177a35.934,35.934,0,0,1,3.079,2.521,30.817,30.817,0,0,0,4.329-4.708H168.981V97.665h15.753a5.375,5.375,0,0,0,1.562-.29l2.165,2.633a6.8,6.8,0,0,0-1.094,1.094,77.078,77.078,0,0,1-6.85,7.229,16.951,16.951,0,0,1,2.008,2.633c-.8.714-2.1,1.875-2.9,2.611-.8-1.5-2.208-4.039-7.028-7.832Z"/><path class="cls-1" d="M196.788,100.031a34.9,34.9,0,0,1,2.053,4.083,14.5,14.5,0,0,0-2.835,1.383,47.039,47.039,0,0,0-2.1-4.262Zm12.63.357c.245.066.423.133.423.334,0,.224-.313.246-.423.246-1.875,7.921-5.467,11.045-10.645,13.276a9,9,0,0,0-2.119-2.521c5.712-2.209,8.568-5.244,9.528-12.34ZM201.339,99a16.35,16.35,0,0,1,1.831,4.195,22.949,22.949,0,0,0-2.812,1.16,35.44,35.44,0,0,0-1.941-4.172Z"/><path class="cls-1" d="M227.842,102.217h6.85v3.191h-7.1a11.787,11.787,0,0,1-7.452,9.372,10.212,10.212,0,0,0-2.746-2.79c2.589-.914,6.026-2.521,6.6-6.582h-8.478v-3.191h8.613V99.74a43.462,43.462,0,0,1-5.267.648,12.939,12.939,0,0,0-1.674-3.08c6.405,0,10.645-1.651,12.5-2.878l2.723,2.387a.4.4,0,0,1,.178.335c0,.156-.133.246-.335.246a.686.686,0,0,1-.334-.09,22.819,22.819,0,0,1-4.083,1.54Z"/><path class="cls-1" d="M241.256,95.211a21.262,21.262,0,0,1,5.578,3.659c-.535.648-.692.893-2.164,3.035a22.931,22.931,0,0,0-5.624-3.57Zm-1.83,15.419a26.416,26.416,0,0,0,16.6-12,14.321,14.321,0,0,0,2.3,3.035,29.546,29.546,0,0,1-6.939,7.43,37.067,37.067,0,0,1-9.193,4.976c0,.245-.112.491-.312.491-.135,0-.224-.067-.358-.313Z"/><path class="cls-1" d="M277.357,97.955a3.729,3.729,0,0,0,1.584-.334l1.852,1.584c-.4.669-1.763,3.726-2.276,4.864-3.436,7.721-8.39,10.2-10.354,11.18a11.9,11.9,0,0,0-2.878-2.545,20.5,20.5,0,0,0,7.252-5.287,21.284,21.284,0,0,0,3.325-6.249h-5.578a30.657,30.657,0,0,1-5.021,5.713,12.091,12.091,0,0,0-2.723-2.41c5.422-4.6,6.829-8.524,7.32-9.863l3.212,1.562c.09.045.291.157.291.335,0,.223-.312.29-.536.312-.357.692-.424.87-.581,1.138Zm-.714-4.038a18.14,18.14,0,0,1,2.186,2.142A19.968,19.968,0,0,0,277,97.308a19.4,19.4,0,0,0-2.12-2.142Zm3.548-.246a20.89,20.89,0,0,1,2.187,2.3c-.29.2-1.608,1.048-1.875,1.227a12.05,12.05,0,0,0-2.008-2.343Z"/><rect class="cls-1" x="158.632" y="12.813" width="10.245" height="22.827"/><rect class="cls-1" x="173.534" y="12.813" width="10.245" height="22.827"/><path class="cls-1" d="M165.734,67.047V55.765a28.644,28.644,0,0,0,13.982-6.125,30.491,30.491,0,0,0,8.3-10.879,71.4,71.4,0,0,0,4.231-12.087,86.893,86.893,0,0,0,1.934-9.792,34.242,34.242,0,0,0,.4-4.069h10.8a111.658,111.658,0,0,1-1.692,12.853,79.544,79.544,0,0,1-3.587,12.25,51.552,51.552,0,0,1-7.011,12.692,44.716,44.716,0,0,1-11.2,10.557A39.516,39.516,0,0,1,165.734,67.047Z"/><path class="cls-1" d="M3.186,68.175V53.751a55.459,55.459,0,0,0,12.612-8.7A86.959,86.959,0,0,0,26.315,33.363,73.906,73.906,0,0,0,35.34,16.682H6.168V3.707H52.505C49.563,24.733,29.03,57.586,3.186,68.175Z"/><rect class="cls-1" x="233.195" y="0.645" width="12.732" height="67.53"/><path class="cls-1" d="M40.255,54.516a95.03,95.03,0,0,0,7.576,7.212q3.544,2.983,7.9,6.125V52.461q-.081-.078-2.7-2.216a60.238,60.238,0,0,1-6.2-6.084c-1.594-1.754-3.193-3.639-4.8-5.633a111.912,111.912,0,0,1-7.233,9.71Q37.466,51.576,40.255,54.516Z"/><path class="cls-1" d="M78.148,43.758V29.011a8.8,8.8,0,0,0,1.773-1.45,23.123,23.123,0,0,0,3.788-4.956,67.73,67.73,0,0,0,4.432-9.027A58.154,58.154,0,0,0,91.687,0h12.732C101.528,15.414,95.842,33.262,78.148,43.758Z"/><path class="cls-1" d="M105.329,12.813a73.114,73.114,0,0,1-5.17,12.894h34.56V12.813Z"/><path class="cls-1" d="M103.976,41.421a33.447,33.447,0,0,1-8.341,9.107A33.772,33.772,0,0,1,88.1,54.8a18.292,18.292,0,0,1-3.263,1.048V68.9a21.458,21.458,0,0,0,3.183-.846,48.956,48.956,0,0,0,7.937-3.425,60.65,60.65,0,0,0,10.315-6.971,43.182,43.182,0,0,0,9.953-12.37,47.557,47.557,0,0,0,5.219-15.732H108.571A34.577,34.577,0,0,1,103.976,41.421Z"/><path class="cls-1" d="M274.4,41.756H249.778V34.142c0-4,5.511-9.64,12.309-9.64s12.309,5.645,12.309,9.64Z"/><path class="cls-1" d="M274.4,41.756c8.833,0,7.977-7.723,6.9-11.441-1.022-3.524-3.895-13.093-3.895-13.093l-3.9,1.787Z"/><ellipse class="cls-1" cx="273.563" cy="18.765" rx="4.137" ry="3.978" transform="translate(12.895 103.859) rotate(-22.003)"/></g></g></svg>