<svg xmlns="http://www.w3.org/2000/svg" viewBox="0 0 43.694 57.108"><defs><style>.cls-1{fill:#f39800;stroke:#f39800;stroke-miterlimit:10;}</style></defs><title>アセット 6</title><g id="レイヤー_2" data-name="レイヤー 2"><g id="layout"><path class="cls-1" d="M32.28.5H13.387a.885.885,0,0,0-.171.017H13.21A.922.922,0,0,0,12.993.6l-.052.028a.873.873,0,0,0-.191.141L.764,12.75a.912.912,0,0,0-.142.191c-.009.017-.018.033-.026.051a.881.881,0,0,0-.079.219h0a.927.927,0,0,0-.017.175V45.694a.9.9,0,0,0,.9.9H32.28a.9.9,0,0,0,.9-.9V1.4A.9.9,0,0,0,32.28.5ZM12.487,3.573v8.913H3.573L8.03,8.029ZM31.38,44.794H2.3V14.286H13.387a.9.9,0,0,0,.9-.9V2.3H31.38Z"/><path class="cls-1" d="M41.38,54.651H11.23a.99.99,0,0,0,.17,1.943H42.28a.9.9,0,0,0,.9-.9V11.4a.9.9,0,1,0-1.8,0ZM10.357,55.864a.9.9,0,0,0,1.043.73.9.9,0,0,0,.9-.9v-5a.9.9,0,0,0-.9-.9.9.9,0,0,0-1.043.73ZM42.45,12.443a.9.9,0,0,0,.73-1.043.9.9,0,0,0-.9-.9h-5a.9.9,0,0,0-.9.9.9.9,0,0,0,.73,1.043Z"/></g></g></svg>