<svg xmlns="http://www.w3.org/2000/svg" xmlns:xlink="http://www.w3.org/1999/xlink" viewBox="0 0 30.925 26.006"><defs><style>.cls-1{fill:none;}.cls-2{clip-path:url(#clip-path);}.cls-3{fill:#fff;}</style><clipPath id="clip-path" transform="translate(-8.503 -8.504)"><rect class="cls-1" width="47.932" height="43.014"/></clipPath></defs><title>icn_muscle</title><g id="レイヤー_2" data-name="レイヤー 2"><g id="layout"><g id="アートワーク_3" data-name="アートワーク 3"><g class="cls-2"><g class="cls-2"><path class="cls-3" d="M27.6,17.927c-5.527,0-10.168,3.882-11.468,7.4l.36-9.08A3.832,3.832,0,0,0,20.253,13.9,3.9,3.9,0,0,0,18,8.867a3.657,3.657,0,0,0-5.12,2.056,4.8,4.8,0,0,0-.263.883c-.712,2.378-2.683,8.958-3.481,11.708-1.037,3.574-1.86,11,6.631,11H39.428V27.193c0-3.84-5.3-9.266-11.831-9.266" transform="translate(-8.503 -8.504)"/></g></g></g></g></g></svg>