<svg xmlns="http://www.w3.org/2000/svg" viewBox="0 0 164.312 40.664" width="284" height="70"><defs><style>.cls-1{fill:none;stroke:#fff;stroke-miterlimit:10;stroke-width:0.92px;}.cls-2{fill:#fff;}</style></defs><title>ogp_btn_more</title><g id="レイヤー_2" data-name="レイヤー 2"><g id="layout"><path class="cls-1" d="M143.98,40.2a19.872,19.872,0,1,0,0-39.744H20.332a19.872,19.872,0,0,0,0,39.744Z"/><path class="cls-2" d="M54.911,16.019v1.02h-4.94v-1.02ZM51.6,25.171v.689H50.355V21.343h4.357v4.371H53.494v-.543Zm2.835-10.94v1.007H50.5V14.231Zm0,3.536v1.02H50.5v-1.02Zm0,1.8v1.019H50.5V19.569ZM53.494,24.1V22.482H51.6V24.1Zm5.337-8.012a14.53,14.53,0,0,0,1.047-2.5l1.338.516c.065.027.238.093.238.2,0,.132-.106.146-.4.172a17.025,17.025,0,0,1-.822,1.617h1.55v1.165H59.176V18.84h2.291v1.153H59.176v1.629H62.09v1.205H59.176V25.86H57.785V22.827H55.109V21.622h2.676V19.993H55.613V18.84h2.172V17.251H55.321V16.086h1.405a9.265,9.265,0,0,0-1.3-1.776l1.112-.675a12.993,12.993,0,0,1,1.4,1.88,7.7,7.7,0,0,0-.94.571Z"/><path class="cls-2" d="M66.92,14.217c.2.027.317.04.317.173s-.2.2-.331.225a49.013,49.013,0,0,0-.344,5.854c0,2.463.172,3.643,1.6,3.643,2.649,0,4.662-3.073,5.059-3.935a6.013,6.013,0,0,0,1.047,1.166c-2.172,3.47-4.715,4.186-6.226,4.186-2.781,0-2.9-2.636-2.9-5.073,0-.9.159-4.887.159-5.708a5.4,5.4,0,0,0-.04-.755Z"/><path class="cls-2" d="M84.37,14.429c.093.067.186.159.186.226a.14.14,0,0,1-.159.133,1.065,1.065,0,0,1-.212-.04c-.412.383-3.2,2.794-5.047,4.264-.239.186-.6.477-.6.662,0,.212.066.252.689.65a27.083,27.083,0,0,1,5.628,4.6A7.977,7.977,0,0,0,83.787,26.1a25.312,25.312,0,0,0-5.748-5.007c-1.179-.754-1.3-.847-1.3-1.364,0-.3,0-.45,1.086-1.284a33.083,33.083,0,0,0,5.284-4.927Z"/><path class="cls-2" d="M95.9,23.688c0,.516.172.608.715.608h1.351c.345,0,.609,0,.874-1.655a2.848,2.848,0,0,0,1.259.636c-.438,2.238-.994,2.317-1.987,2.317H96.166c-1.033,0-1.695-.317-1.695-1.536V21.3H92.259l.8.186c.145.04.331.106.331.252,0,.172-.212.212-.411.224-.358,1.021-1.02,2.822-4.092,4.12a5.177,5.177,0,0,0-1.073-1.139c1.88-.5,3.523-1.616,3.827-3.643H89.517V14.112h8.689V21.3H95.9Zm.874-7.537v-.834H91.014v.834Zm-5.761,1.06v.847h5.761v-.847Zm0,1.934v.94h5.761v-.94Z"/><path class="cls-2" d="M110.334,15.065c-.477.385-3.4,3.086-3.827,3.523a5.713,5.713,0,0,1,2.053-.383c1.893,0,3.721,1.112,3.721,3.35,0,2.808-2.8,4.013-4.861,4.013-1.708,0-3.046-.768-3.046-2.119a1.981,1.981,0,0,1,2.212-1.854,2.729,2.729,0,0,1,2.781,2.278,2.354,2.354,0,0,0,1.55-2.2c0-1.3-.94-2.317-2.7-2.317-2.225,0-3.6,1.258-5.7,3.443l-1.073-1.046a61.765,61.765,0,0,0,6.278-6.013,41.2,41.2,0,0,1-4.622.543l-.226-1.391a23.937,23.937,0,0,0,6.729-.781ZM107.659,23.2a1.944,1.944,0,0,0-1.219-.478.724.724,0,0,0-.821.729c0,.821,1.086,1.047,1.616,1.047a3.526,3.526,0,0,0,.954-.133A1.654,1.654,0,0,0,107.659,23.2Z"/></g></g></svg>